%TF.GenerationSoftware,KiCad,Pcbnew,9.0.1*%
%TF.CreationDate,2026-04-01T10:43:58+07:00*%
%TF.ProjectId,Nhat,4e686174-2e6b-4696-9361-645f70636258,rev?*%
%TF.SameCoordinates,Original*%
%TF.FileFunction,Plated,1,2,PTH,Mixed*%
%TF.FilePolarity,Positive*%
%FSLAX46Y46*%
G04 Gerber Fmt 4.6, Leading zero omitted, Abs format (unit mm)*
G04 Created by KiCad (PCBNEW 9.0.1) date 2026-04-01 10:43:58*
%MOMM*%
%LPD*%
G01*
G04 APERTURE LIST*
%TA.AperFunction,ComponentDrill*%
%ADD10C,0.200000*%
%TD*%
%TA.AperFunction,ViaDrill*%
%ADD11C,0.300000*%
%TD*%
G04 aperture for slot hole*
%TA.AperFunction,ComponentDrill*%
%ADD12C,0.600000*%
%TD*%
%TA.AperFunction,ComponentDrill*%
%ADD13C,1.300000*%
%TD*%
G04 APERTURE END LIST*
D10*
%TO.C,U1*%
X41515000Y-98237500D03*
X41515000Y-99762501D03*
X42277499Y-100525000D03*
X42277500Y-97475000D03*
X42277500Y-99000001D03*
X43040000Y-98237500D03*
X43040000Y-99762500D03*
X43802500Y-97475000D03*
X43802500Y-99000000D03*
X43802500Y-100525000D03*
X44565000Y-98237500D03*
X44565000Y-99762500D03*
%TD*%
D11*
X35700000Y-85980000D03*
X35700000Y-91030000D03*
X35700000Y-104315000D03*
X37425002Y-102781751D03*
X37425002Y-104315000D03*
X39410000Y-109267500D03*
X39410000Y-111092500D03*
X39510000Y-91470000D03*
X39510000Y-97100000D03*
X40570000Y-101990000D03*
X42240000Y-103660000D03*
X42550000Y-117200000D03*
X43740000Y-67510000D03*
X43810000Y-91580000D03*
X43990000Y-109320000D03*
X44285000Y-95245000D03*
X44380000Y-84820000D03*
X45080000Y-91580000D03*
X45090000Y-73000000D03*
X45650000Y-84820000D03*
X47260000Y-85870000D03*
X47270331Y-100890331D03*
X48105001Y-68460000D03*
X48190000Y-84820000D03*
X48630000Y-95120000D03*
X48840000Y-91100000D03*
X49460000Y-84820000D03*
X49599999Y-61540000D03*
X50110000Y-91100000D03*
X50210000Y-104800000D03*
X50650000Y-94500000D03*
X50980000Y-117200000D03*
X51070000Y-96030000D03*
X51380000Y-63369999D03*
X51380000Y-64640000D03*
X51620000Y-105240000D03*
X51970000Y-91560000D03*
X52210000Y-89570000D03*
X52860000Y-70990000D03*
X52860000Y-72715002D03*
X53130000Y-67584998D03*
X53130000Y-69310000D03*
X53890000Y-105240000D03*
X54260000Y-109320000D03*
X54290000Y-76759998D03*
X54290000Y-78485000D03*
X54300000Y-80130000D03*
X54300000Y-81855002D03*
X54955900Y-104030000D03*
X55010000Y-103145900D03*
X55210000Y-101770000D03*
X55300000Y-93860000D03*
X55310000Y-95120000D03*
X55330000Y-96030000D03*
X56085000Y-109320000D03*
X56380000Y-84835000D03*
X56380000Y-86105001D03*
X58040000Y-105760000D03*
X58170000Y-104415900D03*
X58640000Y-103145900D03*
X59500000Y-106630000D03*
X59696104Y-109920000D03*
X59725000Y-81800000D03*
X60620000Y-107860000D03*
X61280000Y-90370000D03*
X61570000Y-113750000D03*
X61627500Y-86690000D03*
X61627500Y-88229999D03*
X62578276Y-110055000D03*
X62820000Y-104081800D03*
X63040000Y-112390000D03*
X63120000Y-77230000D03*
X64340000Y-82750000D03*
X64570000Y-113750000D03*
X64590000Y-93892501D03*
X64990000Y-86000000D03*
X65090000Y-87632501D03*
X66010000Y-109800000D03*
X66370000Y-94600000D03*
X69100000Y-89560000D03*
X70257501Y-100410000D03*
X70257501Y-104095900D03*
X71940000Y-95580000D03*
D12*
%TO.C,J1*%
X58500000Y-112255000D02*
X58500000Y-111155000D01*
X58500000Y-116285000D02*
X58500000Y-115485000D01*
X67140000Y-112255000D02*
X67140000Y-111155000D01*
X67140000Y-116285000D02*
X67140000Y-115485000D01*
D13*
%TO.C,J2*%
X39380000Y-67510000D03*
X39380000Y-72589999D03*
X39380000Y-77670000D03*
X39380000Y-82750000D03*
%TO.C,J3*%
X68380000Y-67510000D03*
X68380000Y-72590000D03*
X68380000Y-77670001D03*
X68380000Y-82750000D03*
M02*
