%TF.GenerationSoftware,KiCad,Pcbnew,9.0.1*%
%TF.CreationDate,2026-04-01T10:43:58+07:00*%
%TF.ProjectId,Nhat,4e686174-2e6b-4696-9361-645f70636258,rev?*%
%TF.SameCoordinates,Original*%
%TF.FileFunction,Drillmap*%
%TF.FilePolarity,Positive*%
%FSLAX45Y45*%
G04 Gerber Fmt 4.5, Leading zero omitted, Abs format (unit mm)*
G04 Created by KiCad (PCBNEW 9.0.1) date 2026-04-01 10:43:58*
%MOMM*%
%LPD*%
G01*
G04 APERTURE LIST*
%ADD10C,0.050000*%
%ADD11C,0.200000*%
%ADD12C,0.100000*%
G04 APERTURE END LIST*
D10*
X7238000Y-11551000D02*
G75*
G02*
X6938000Y-11551000I-150000J0D01*
G01*
X6938000Y-11551000D02*
G75*
G02*
X7238000Y-11551000I150000J0D01*
G01*
X3388000Y-5851000D02*
X7388000Y-5851000D01*
X7388000Y-11851000D01*
X3388000Y-11851000D01*
X3388000Y-5851000D01*
X3838000Y-11551000D02*
G75*
G02*
X3538000Y-11551000I-150000J0D01*
G01*
X3538000Y-11551000D02*
G75*
G02*
X3838000Y-11551000I150000J0D01*
G01*
X3838000Y-6151000D02*
G75*
G02*
X3538000Y-6151000I-150000J0D01*
G01*
X3538000Y-6151000D02*
G75*
G02*
X3838000Y-6151000I150000J0D01*
G01*
X7238000Y-6151000D02*
G75*
G02*
X6938000Y-6151000I-150000J0D01*
G01*
X6938000Y-6151000D02*
G75*
G02*
X7238000Y-6151000I150000J0D01*
G01*
D11*
D12*
X5960500Y-11188000D02*
X6025500Y-11253000D01*
X6025500Y-11188000D02*
X5960500Y-11253000D01*
X6538500Y-11188000D02*
X6603500Y-11253000D01*
X6603500Y-11188000D02*
X6538500Y-11253000D01*
D11*
X3646277Y-12164984D02*
X3646277Y-11964984D01*
X3646277Y-11964984D02*
X3693896Y-11964984D01*
X3693896Y-11964984D02*
X3722467Y-11974508D01*
X3722467Y-11974508D02*
X3741515Y-11993555D01*
X3741515Y-11993555D02*
X3751039Y-12012603D01*
X3751039Y-12012603D02*
X3760562Y-12050698D01*
X3760562Y-12050698D02*
X3760562Y-12079269D01*
X3760562Y-12079269D02*
X3751039Y-12117365D01*
X3751039Y-12117365D02*
X3741515Y-12136412D01*
X3741515Y-12136412D02*
X3722467Y-12155460D01*
X3722467Y-12155460D02*
X3693896Y-12164984D01*
X3693896Y-12164984D02*
X3646277Y-12164984D01*
X3846277Y-12164984D02*
X3846277Y-12031650D01*
X3846277Y-12069746D02*
X3855801Y-12050698D01*
X3855801Y-12050698D02*
X3865324Y-12041174D01*
X3865324Y-12041174D02*
X3884372Y-12031650D01*
X3884372Y-12031650D02*
X3903420Y-12031650D01*
X3970086Y-12164984D02*
X3970086Y-12031650D01*
X3970086Y-11964984D02*
X3960562Y-11974508D01*
X3960562Y-11974508D02*
X3970086Y-11984031D01*
X3970086Y-11984031D02*
X3979610Y-11974508D01*
X3979610Y-11974508D02*
X3970086Y-11964984D01*
X3970086Y-11964984D02*
X3970086Y-11984031D01*
X4093896Y-12164984D02*
X4074848Y-12155460D01*
X4074848Y-12155460D02*
X4065324Y-12136412D01*
X4065324Y-12136412D02*
X4065324Y-11964984D01*
X4198658Y-12164984D02*
X4179610Y-12155460D01*
X4179610Y-12155460D02*
X4170086Y-12136412D01*
X4170086Y-12136412D02*
X4170086Y-11964984D01*
X4427229Y-12164984D02*
X4427229Y-11964984D01*
X4427229Y-11964984D02*
X4493896Y-12107841D01*
X4493896Y-12107841D02*
X4560563Y-11964984D01*
X4560563Y-11964984D02*
X4560563Y-12164984D01*
X4741515Y-12164984D02*
X4741515Y-12060222D01*
X4741515Y-12060222D02*
X4731991Y-12041174D01*
X4731991Y-12041174D02*
X4712944Y-12031650D01*
X4712944Y-12031650D02*
X4674848Y-12031650D01*
X4674848Y-12031650D02*
X4655801Y-12041174D01*
X4741515Y-12155460D02*
X4722467Y-12164984D01*
X4722467Y-12164984D02*
X4674848Y-12164984D01*
X4674848Y-12164984D02*
X4655801Y-12155460D01*
X4655801Y-12155460D02*
X4646277Y-12136412D01*
X4646277Y-12136412D02*
X4646277Y-12117365D01*
X4646277Y-12117365D02*
X4655801Y-12098317D01*
X4655801Y-12098317D02*
X4674848Y-12088793D01*
X4674848Y-12088793D02*
X4722467Y-12088793D01*
X4722467Y-12088793D02*
X4741515Y-12079269D01*
X4836753Y-12031650D02*
X4836753Y-12231650D01*
X4836753Y-12041174D02*
X4855801Y-12031650D01*
X4855801Y-12031650D02*
X4893896Y-12031650D01*
X4893896Y-12031650D02*
X4912944Y-12041174D01*
X4912944Y-12041174D02*
X4922467Y-12050698D01*
X4922467Y-12050698D02*
X4931991Y-12069746D01*
X4931991Y-12069746D02*
X4931991Y-12126888D01*
X4931991Y-12126888D02*
X4922467Y-12145936D01*
X4922467Y-12145936D02*
X4912944Y-12155460D01*
X4912944Y-12155460D02*
X4893896Y-12164984D01*
X4893896Y-12164984D02*
X4855801Y-12164984D01*
X4855801Y-12164984D02*
X4836753Y-12155460D01*
X5017705Y-12145936D02*
X5027229Y-12155460D01*
X5027229Y-12155460D02*
X5017705Y-12164984D01*
X5017705Y-12164984D02*
X5008182Y-12155460D01*
X5008182Y-12155460D02*
X5017705Y-12145936D01*
X5017705Y-12145936D02*
X5017705Y-12164984D01*
X5017705Y-12041174D02*
X5027229Y-12050698D01*
X5027229Y-12050698D02*
X5017705Y-12060222D01*
X5017705Y-12060222D02*
X5008182Y-12050698D01*
X5008182Y-12050698D02*
X5017705Y-12041174D01*
X5017705Y-12041174D02*
X5017705Y-12060222D01*
D12*
X3320500Y-12461000D02*
X3385500Y-12526000D01*
X3385500Y-12461000D02*
X3320500Y-12526000D01*
D11*
X3684372Y-12384984D02*
X3703420Y-12384984D01*
X3703420Y-12384984D02*
X3722467Y-12394508D01*
X3722467Y-12394508D02*
X3731991Y-12404031D01*
X3731991Y-12404031D02*
X3741515Y-12423079D01*
X3741515Y-12423079D02*
X3751039Y-12461174D01*
X3751039Y-12461174D02*
X3751039Y-12508793D01*
X3751039Y-12508793D02*
X3741515Y-12546888D01*
X3741515Y-12546888D02*
X3731991Y-12565936D01*
X3731991Y-12565936D02*
X3722467Y-12575460D01*
X3722467Y-12575460D02*
X3703420Y-12584984D01*
X3703420Y-12584984D02*
X3684372Y-12584984D01*
X3684372Y-12584984D02*
X3665324Y-12575460D01*
X3665324Y-12575460D02*
X3655801Y-12565936D01*
X3655801Y-12565936D02*
X3646277Y-12546888D01*
X3646277Y-12546888D02*
X3636753Y-12508793D01*
X3636753Y-12508793D02*
X3636753Y-12461174D01*
X3636753Y-12461174D02*
X3646277Y-12423079D01*
X3646277Y-12423079D02*
X3655801Y-12404031D01*
X3655801Y-12404031D02*
X3665324Y-12394508D01*
X3665324Y-12394508D02*
X3684372Y-12384984D01*
X3836753Y-12565936D02*
X3846277Y-12575460D01*
X3846277Y-12575460D02*
X3836753Y-12584984D01*
X3836753Y-12584984D02*
X3827229Y-12575460D01*
X3827229Y-12575460D02*
X3836753Y-12565936D01*
X3836753Y-12565936D02*
X3836753Y-12584984D01*
X4017705Y-12384984D02*
X3979610Y-12384984D01*
X3979610Y-12384984D02*
X3960562Y-12394508D01*
X3960562Y-12394508D02*
X3951039Y-12404031D01*
X3951039Y-12404031D02*
X3931991Y-12432603D01*
X3931991Y-12432603D02*
X3922467Y-12470698D01*
X3922467Y-12470698D02*
X3922467Y-12546888D01*
X3922467Y-12546888D02*
X3931991Y-12565936D01*
X3931991Y-12565936D02*
X3941515Y-12575460D01*
X3941515Y-12575460D02*
X3960562Y-12584984D01*
X3960562Y-12584984D02*
X3998658Y-12584984D01*
X3998658Y-12584984D02*
X4017705Y-12575460D01*
X4017705Y-12575460D02*
X4027229Y-12565936D01*
X4027229Y-12565936D02*
X4036753Y-12546888D01*
X4036753Y-12546888D02*
X4036753Y-12499269D01*
X4036753Y-12499269D02*
X4027229Y-12480222D01*
X4027229Y-12480222D02*
X4017705Y-12470698D01*
X4017705Y-12470698D02*
X3998658Y-12461174D01*
X3998658Y-12461174D02*
X3960562Y-12461174D01*
X3960562Y-12461174D02*
X3941515Y-12470698D01*
X3941515Y-12470698D02*
X3931991Y-12480222D01*
X3931991Y-12480222D02*
X3922467Y-12499269D01*
X4217705Y-12384984D02*
X4122467Y-12384984D01*
X4122467Y-12384984D02*
X4112943Y-12480222D01*
X4112943Y-12480222D02*
X4122467Y-12470698D01*
X4122467Y-12470698D02*
X4141515Y-12461174D01*
X4141515Y-12461174D02*
X4189134Y-12461174D01*
X4189134Y-12461174D02*
X4208182Y-12470698D01*
X4208182Y-12470698D02*
X4217705Y-12480222D01*
X4217705Y-12480222D02*
X4227229Y-12499269D01*
X4227229Y-12499269D02*
X4227229Y-12546888D01*
X4227229Y-12546888D02*
X4217705Y-12565936D01*
X4217705Y-12565936D02*
X4208182Y-12575460D01*
X4208182Y-12575460D02*
X4189134Y-12584984D01*
X4189134Y-12584984D02*
X4141515Y-12584984D01*
X4141515Y-12584984D02*
X4122467Y-12575460D01*
X4122467Y-12575460D02*
X4112943Y-12565936D01*
X4351039Y-12384984D02*
X4370086Y-12384984D01*
X4370086Y-12384984D02*
X4389134Y-12394508D01*
X4389134Y-12394508D02*
X4398658Y-12404031D01*
X4398658Y-12404031D02*
X4408182Y-12423079D01*
X4408182Y-12423079D02*
X4417705Y-12461174D01*
X4417705Y-12461174D02*
X4417705Y-12508793D01*
X4417705Y-12508793D02*
X4408182Y-12546888D01*
X4408182Y-12546888D02*
X4398658Y-12565936D01*
X4398658Y-12565936D02*
X4389134Y-12575460D01*
X4389134Y-12575460D02*
X4370086Y-12584984D01*
X4370086Y-12584984D02*
X4351039Y-12584984D01*
X4351039Y-12584984D02*
X4331991Y-12575460D01*
X4331991Y-12575460D02*
X4322467Y-12565936D01*
X4322467Y-12565936D02*
X4312944Y-12546888D01*
X4312944Y-12546888D02*
X4303420Y-12508793D01*
X4303420Y-12508793D02*
X4303420Y-12461174D01*
X4303420Y-12461174D02*
X4312944Y-12423079D01*
X4312944Y-12423079D02*
X4322467Y-12404031D01*
X4322467Y-12404031D02*
X4331991Y-12394508D01*
X4331991Y-12394508D02*
X4351039Y-12384984D01*
X4503420Y-12584984D02*
X4503420Y-12451650D01*
X4503420Y-12470698D02*
X4512944Y-12461174D01*
X4512944Y-12461174D02*
X4531991Y-12451650D01*
X4531991Y-12451650D02*
X4560563Y-12451650D01*
X4560563Y-12451650D02*
X4579610Y-12461174D01*
X4579610Y-12461174D02*
X4589134Y-12480222D01*
X4589134Y-12480222D02*
X4589134Y-12584984D01*
X4589134Y-12480222D02*
X4598658Y-12461174D01*
X4598658Y-12461174D02*
X4617705Y-12451650D01*
X4617705Y-12451650D02*
X4646277Y-12451650D01*
X4646277Y-12451650D02*
X4665325Y-12461174D01*
X4665325Y-12461174D02*
X4674848Y-12480222D01*
X4674848Y-12480222D02*
X4674848Y-12584984D01*
X4770086Y-12584984D02*
X4770086Y-12451650D01*
X4770086Y-12470698D02*
X4779610Y-12461174D01*
X4779610Y-12461174D02*
X4798658Y-12451650D01*
X4798658Y-12451650D02*
X4827229Y-12451650D01*
X4827229Y-12451650D02*
X4846277Y-12461174D01*
X4846277Y-12461174D02*
X4855801Y-12480222D01*
X4855801Y-12480222D02*
X4855801Y-12584984D01*
X4855801Y-12480222D02*
X4865325Y-12461174D01*
X4865325Y-12461174D02*
X4884372Y-12451650D01*
X4884372Y-12451650D02*
X4912944Y-12451650D01*
X4912944Y-12451650D02*
X4931991Y-12461174D01*
X4931991Y-12461174D02*
X4941515Y-12480222D01*
X4941515Y-12480222D02*
X4941515Y-12584984D01*
X5331991Y-12375460D02*
X5160563Y-12632603D01*
X5589134Y-12384984D02*
X5608182Y-12384984D01*
X5608182Y-12384984D02*
X5627229Y-12394508D01*
X5627229Y-12394508D02*
X5636753Y-12404031D01*
X5636753Y-12404031D02*
X5646277Y-12423079D01*
X5646277Y-12423079D02*
X5655801Y-12461174D01*
X5655801Y-12461174D02*
X5655801Y-12508793D01*
X5655801Y-12508793D02*
X5646277Y-12546888D01*
X5646277Y-12546888D02*
X5636753Y-12565936D01*
X5636753Y-12565936D02*
X5627229Y-12575460D01*
X5627229Y-12575460D02*
X5608182Y-12584984D01*
X5608182Y-12584984D02*
X5589134Y-12584984D01*
X5589134Y-12584984D02*
X5570087Y-12575460D01*
X5570087Y-12575460D02*
X5560563Y-12565936D01*
X5560563Y-12565936D02*
X5551039Y-12546888D01*
X5551039Y-12546888D02*
X5541515Y-12508793D01*
X5541515Y-12508793D02*
X5541515Y-12461174D01*
X5541515Y-12461174D02*
X5551039Y-12423079D01*
X5551039Y-12423079D02*
X5560563Y-12404031D01*
X5560563Y-12404031D02*
X5570087Y-12394508D01*
X5570087Y-12394508D02*
X5589134Y-12384984D01*
X5741515Y-12565936D02*
X5751039Y-12575460D01*
X5751039Y-12575460D02*
X5741515Y-12584984D01*
X5741515Y-12584984D02*
X5731991Y-12575460D01*
X5731991Y-12575460D02*
X5741515Y-12565936D01*
X5741515Y-12565936D02*
X5741515Y-12584984D01*
X5874848Y-12384984D02*
X5893896Y-12384984D01*
X5893896Y-12384984D02*
X5912944Y-12394508D01*
X5912944Y-12394508D02*
X5922467Y-12404031D01*
X5922467Y-12404031D02*
X5931991Y-12423079D01*
X5931991Y-12423079D02*
X5941515Y-12461174D01*
X5941515Y-12461174D02*
X5941515Y-12508793D01*
X5941515Y-12508793D02*
X5931991Y-12546888D01*
X5931991Y-12546888D02*
X5922467Y-12565936D01*
X5922467Y-12565936D02*
X5912944Y-12575460D01*
X5912944Y-12575460D02*
X5893896Y-12584984D01*
X5893896Y-12584984D02*
X5874848Y-12584984D01*
X5874848Y-12584984D02*
X5855801Y-12575460D01*
X5855801Y-12575460D02*
X5846277Y-12565936D01*
X5846277Y-12565936D02*
X5836753Y-12546888D01*
X5836753Y-12546888D02*
X5827229Y-12508793D01*
X5827229Y-12508793D02*
X5827229Y-12461174D01*
X5827229Y-12461174D02*
X5836753Y-12423079D01*
X5836753Y-12423079D02*
X5846277Y-12404031D01*
X5846277Y-12404031D02*
X5855801Y-12394508D01*
X5855801Y-12394508D02*
X5874848Y-12384984D01*
X6017706Y-12404031D02*
X6027229Y-12394508D01*
X6027229Y-12394508D02*
X6046277Y-12384984D01*
X6046277Y-12384984D02*
X6093896Y-12384984D01*
X6093896Y-12384984D02*
X6112944Y-12394508D01*
X6112944Y-12394508D02*
X6122467Y-12404031D01*
X6122467Y-12404031D02*
X6131991Y-12423079D01*
X6131991Y-12423079D02*
X6131991Y-12442127D01*
X6131991Y-12442127D02*
X6122467Y-12470698D01*
X6122467Y-12470698D02*
X6008182Y-12584984D01*
X6008182Y-12584984D02*
X6131991Y-12584984D01*
X6312944Y-12384984D02*
X6217706Y-12384984D01*
X6217706Y-12384984D02*
X6208182Y-12480222D01*
X6208182Y-12480222D02*
X6217706Y-12470698D01*
X6217706Y-12470698D02*
X6236753Y-12461174D01*
X6236753Y-12461174D02*
X6284372Y-12461174D01*
X6284372Y-12461174D02*
X6303420Y-12470698D01*
X6303420Y-12470698D02*
X6312944Y-12480222D01*
X6312944Y-12480222D02*
X6322467Y-12499269D01*
X6322467Y-12499269D02*
X6322467Y-12546888D01*
X6322467Y-12546888D02*
X6312944Y-12565936D01*
X6312944Y-12565936D02*
X6303420Y-12575460D01*
X6303420Y-12575460D02*
X6284372Y-12584984D01*
X6284372Y-12584984D02*
X6236753Y-12584984D01*
X6236753Y-12584984D02*
X6217706Y-12575460D01*
X6217706Y-12575460D02*
X6208182Y-12565936D01*
X6493896Y-12384984D02*
X6455801Y-12384984D01*
X6455801Y-12384984D02*
X6436753Y-12394508D01*
X6436753Y-12394508D02*
X6427229Y-12404031D01*
X6427229Y-12404031D02*
X6408182Y-12432603D01*
X6408182Y-12432603D02*
X6398658Y-12470698D01*
X6398658Y-12470698D02*
X6398658Y-12546888D01*
X6398658Y-12546888D02*
X6408182Y-12565936D01*
X6408182Y-12565936D02*
X6417706Y-12575460D01*
X6417706Y-12575460D02*
X6436753Y-12584984D01*
X6436753Y-12584984D02*
X6474848Y-12584984D01*
X6474848Y-12584984D02*
X6493896Y-12575460D01*
X6493896Y-12575460D02*
X6503420Y-12565936D01*
X6503420Y-12565936D02*
X6512944Y-12546888D01*
X6512944Y-12546888D02*
X6512944Y-12499269D01*
X6512944Y-12499269D02*
X6503420Y-12480222D01*
X6503420Y-12480222D02*
X6493896Y-12470698D01*
X6493896Y-12470698D02*
X6474848Y-12461174D01*
X6474848Y-12461174D02*
X6436753Y-12461174D01*
X6436753Y-12461174D02*
X6417706Y-12470698D01*
X6417706Y-12470698D02*
X6408182Y-12480222D01*
X6408182Y-12480222D02*
X6398658Y-12499269D01*
X6589134Y-12384984D02*
X6589134Y-12423079D01*
X6665325Y-12384984D02*
X6665325Y-12423079D01*
X6960563Y-12661174D02*
X6951039Y-12651650D01*
X6951039Y-12651650D02*
X6931991Y-12623079D01*
X6931991Y-12623079D02*
X6922468Y-12604031D01*
X6922468Y-12604031D02*
X6912944Y-12575460D01*
X6912944Y-12575460D02*
X6903420Y-12527841D01*
X6903420Y-12527841D02*
X6903420Y-12489746D01*
X6903420Y-12489746D02*
X6912944Y-12442127D01*
X6912944Y-12442127D02*
X6922468Y-12413555D01*
X6922468Y-12413555D02*
X6931991Y-12394508D01*
X6931991Y-12394508D02*
X6951039Y-12365936D01*
X6951039Y-12365936D02*
X6960563Y-12356412D01*
X7027229Y-12404031D02*
X7036753Y-12394508D01*
X7036753Y-12394508D02*
X7055801Y-12384984D01*
X7055801Y-12384984D02*
X7103420Y-12384984D01*
X7103420Y-12384984D02*
X7122468Y-12394508D01*
X7122468Y-12394508D02*
X7131991Y-12404031D01*
X7131991Y-12404031D02*
X7141515Y-12423079D01*
X7141515Y-12423079D02*
X7141515Y-12442127D01*
X7141515Y-12442127D02*
X7131991Y-12470698D01*
X7131991Y-12470698D02*
X7017706Y-12584984D01*
X7017706Y-12584984D02*
X7141515Y-12584984D01*
X7379610Y-12584984D02*
X7379610Y-12384984D01*
X7465325Y-12584984D02*
X7465325Y-12480222D01*
X7465325Y-12480222D02*
X7455801Y-12461174D01*
X7455801Y-12461174D02*
X7436753Y-12451650D01*
X7436753Y-12451650D02*
X7408182Y-12451650D01*
X7408182Y-12451650D02*
X7389134Y-12461174D01*
X7389134Y-12461174D02*
X7379610Y-12470698D01*
X7589134Y-12584984D02*
X7570087Y-12575460D01*
X7570087Y-12575460D02*
X7560563Y-12565936D01*
X7560563Y-12565936D02*
X7551039Y-12546888D01*
X7551039Y-12546888D02*
X7551039Y-12489746D01*
X7551039Y-12489746D02*
X7560563Y-12470698D01*
X7560563Y-12470698D02*
X7570087Y-12461174D01*
X7570087Y-12461174D02*
X7589134Y-12451650D01*
X7589134Y-12451650D02*
X7617706Y-12451650D01*
X7617706Y-12451650D02*
X7636753Y-12461174D01*
X7636753Y-12461174D02*
X7646277Y-12470698D01*
X7646277Y-12470698D02*
X7655801Y-12489746D01*
X7655801Y-12489746D02*
X7655801Y-12546888D01*
X7655801Y-12546888D02*
X7646277Y-12565936D01*
X7646277Y-12565936D02*
X7636753Y-12575460D01*
X7636753Y-12575460D02*
X7617706Y-12584984D01*
X7617706Y-12584984D02*
X7589134Y-12584984D01*
X7770087Y-12584984D02*
X7751039Y-12575460D01*
X7751039Y-12575460D02*
X7741515Y-12556412D01*
X7741515Y-12556412D02*
X7741515Y-12384984D01*
X7922468Y-12575460D02*
X7903420Y-12584984D01*
X7903420Y-12584984D02*
X7865325Y-12584984D01*
X7865325Y-12584984D02*
X7846277Y-12575460D01*
X7846277Y-12575460D02*
X7836753Y-12556412D01*
X7836753Y-12556412D02*
X7836753Y-12480222D01*
X7836753Y-12480222D02*
X7846277Y-12461174D01*
X7846277Y-12461174D02*
X7865325Y-12451650D01*
X7865325Y-12451650D02*
X7903420Y-12451650D01*
X7903420Y-12451650D02*
X7922468Y-12461174D01*
X7922468Y-12461174D02*
X7931991Y-12480222D01*
X7931991Y-12480222D02*
X7931991Y-12499269D01*
X7931991Y-12499269D02*
X7836753Y-12518317D01*
X8008182Y-12575460D02*
X8027230Y-12584984D01*
X8027230Y-12584984D02*
X8065325Y-12584984D01*
X8065325Y-12584984D02*
X8084372Y-12575460D01*
X8084372Y-12575460D02*
X8093896Y-12556412D01*
X8093896Y-12556412D02*
X8093896Y-12546888D01*
X8093896Y-12546888D02*
X8084372Y-12527841D01*
X8084372Y-12527841D02*
X8065325Y-12518317D01*
X8065325Y-12518317D02*
X8036753Y-12518317D01*
X8036753Y-12518317D02*
X8017706Y-12508793D01*
X8017706Y-12508793D02*
X8008182Y-12489746D01*
X8008182Y-12489746D02*
X8008182Y-12480222D01*
X8008182Y-12480222D02*
X8017706Y-12461174D01*
X8017706Y-12461174D02*
X8036753Y-12451650D01*
X8036753Y-12451650D02*
X8065325Y-12451650D01*
X8065325Y-12451650D02*
X8084372Y-12461174D01*
X8160563Y-12661174D02*
X8170087Y-12651650D01*
X8170087Y-12651650D02*
X8189134Y-12623079D01*
X8189134Y-12623079D02*
X8198658Y-12604031D01*
X8198658Y-12604031D02*
X8208182Y-12575460D01*
X8208182Y-12575460D02*
X8217706Y-12527841D01*
X8217706Y-12527841D02*
X8217706Y-12489746D01*
X8217706Y-12489746D02*
X8208182Y-12442127D01*
X8208182Y-12442127D02*
X8198658Y-12413555D01*
X8198658Y-12413555D02*
X8189134Y-12394508D01*
X8189134Y-12394508D02*
X8170087Y-12365936D01*
X8170087Y-12365936D02*
X8160563Y-12356412D01*
X8522468Y-12661174D02*
X8512944Y-12651650D01*
X8512944Y-12651650D02*
X8493896Y-12623079D01*
X8493896Y-12623079D02*
X8484373Y-12604031D01*
X8484373Y-12604031D02*
X8474849Y-12575460D01*
X8474849Y-12575460D02*
X8465325Y-12527841D01*
X8465325Y-12527841D02*
X8465325Y-12489746D01*
X8465325Y-12489746D02*
X8474849Y-12442127D01*
X8474849Y-12442127D02*
X8484373Y-12413555D01*
X8484373Y-12413555D02*
X8493896Y-12394508D01*
X8493896Y-12394508D02*
X8512944Y-12365936D01*
X8512944Y-12365936D02*
X8522468Y-12356412D01*
X8598658Y-12451650D02*
X8598658Y-12584984D01*
X8598658Y-12470698D02*
X8608182Y-12461174D01*
X8608182Y-12461174D02*
X8627230Y-12451650D01*
X8627230Y-12451650D02*
X8655801Y-12451650D01*
X8655801Y-12451650D02*
X8674849Y-12461174D01*
X8674849Y-12461174D02*
X8684373Y-12480222D01*
X8684373Y-12480222D02*
X8684373Y-12584984D01*
X8808182Y-12584984D02*
X8789134Y-12575460D01*
X8789134Y-12575460D02*
X8779611Y-12565936D01*
X8779611Y-12565936D02*
X8770087Y-12546888D01*
X8770087Y-12546888D02*
X8770087Y-12489746D01*
X8770087Y-12489746D02*
X8779611Y-12470698D01*
X8779611Y-12470698D02*
X8789134Y-12461174D01*
X8789134Y-12461174D02*
X8808182Y-12451650D01*
X8808182Y-12451650D02*
X8836754Y-12451650D01*
X8836754Y-12451650D02*
X8855801Y-12461174D01*
X8855801Y-12461174D02*
X8865325Y-12470698D01*
X8865325Y-12470698D02*
X8874849Y-12489746D01*
X8874849Y-12489746D02*
X8874849Y-12546888D01*
X8874849Y-12546888D02*
X8865325Y-12565936D01*
X8865325Y-12565936D02*
X8855801Y-12575460D01*
X8855801Y-12575460D02*
X8836754Y-12584984D01*
X8836754Y-12584984D02*
X8808182Y-12584984D01*
X8931992Y-12451650D02*
X9008182Y-12451650D01*
X8960563Y-12384984D02*
X8960563Y-12556412D01*
X8960563Y-12556412D02*
X8970087Y-12575460D01*
X8970087Y-12575460D02*
X8989134Y-12584984D01*
X8989134Y-12584984D02*
X9008182Y-12584984D01*
X9227230Y-12451650D02*
X9227230Y-12651650D01*
X9227230Y-12461174D02*
X9246277Y-12451650D01*
X9246277Y-12451650D02*
X9284373Y-12451650D01*
X9284373Y-12451650D02*
X9303420Y-12461174D01*
X9303420Y-12461174D02*
X9312944Y-12470698D01*
X9312944Y-12470698D02*
X9322468Y-12489746D01*
X9322468Y-12489746D02*
X9322468Y-12546888D01*
X9322468Y-12546888D02*
X9312944Y-12565936D01*
X9312944Y-12565936D02*
X9303420Y-12575460D01*
X9303420Y-12575460D02*
X9284373Y-12584984D01*
X9284373Y-12584984D02*
X9246277Y-12584984D01*
X9246277Y-12584984D02*
X9227230Y-12575460D01*
X9436754Y-12584984D02*
X9417706Y-12575460D01*
X9417706Y-12575460D02*
X9408182Y-12556412D01*
X9408182Y-12556412D02*
X9408182Y-12384984D01*
X9598658Y-12584984D02*
X9598658Y-12480222D01*
X9598658Y-12480222D02*
X9589135Y-12461174D01*
X9589135Y-12461174D02*
X9570087Y-12451650D01*
X9570087Y-12451650D02*
X9531992Y-12451650D01*
X9531992Y-12451650D02*
X9512944Y-12461174D01*
X9598658Y-12575460D02*
X9579611Y-12584984D01*
X9579611Y-12584984D02*
X9531992Y-12584984D01*
X9531992Y-12584984D02*
X9512944Y-12575460D01*
X9512944Y-12575460D02*
X9503420Y-12556412D01*
X9503420Y-12556412D02*
X9503420Y-12537365D01*
X9503420Y-12537365D02*
X9512944Y-12518317D01*
X9512944Y-12518317D02*
X9531992Y-12508793D01*
X9531992Y-12508793D02*
X9579611Y-12508793D01*
X9579611Y-12508793D02*
X9598658Y-12499269D01*
X9665325Y-12451650D02*
X9741515Y-12451650D01*
X9693896Y-12384984D02*
X9693896Y-12556412D01*
X9693896Y-12556412D02*
X9703420Y-12575460D01*
X9703420Y-12575460D02*
X9722468Y-12584984D01*
X9722468Y-12584984D02*
X9741515Y-12584984D01*
X9884373Y-12575460D02*
X9865325Y-12584984D01*
X9865325Y-12584984D02*
X9827230Y-12584984D01*
X9827230Y-12584984D02*
X9808182Y-12575460D01*
X9808182Y-12575460D02*
X9798658Y-12556412D01*
X9798658Y-12556412D02*
X9798658Y-12480222D01*
X9798658Y-12480222D02*
X9808182Y-12461174D01*
X9808182Y-12461174D02*
X9827230Y-12451650D01*
X9827230Y-12451650D02*
X9865325Y-12451650D01*
X9865325Y-12451650D02*
X9884373Y-12461174D01*
X9884373Y-12461174D02*
X9893896Y-12480222D01*
X9893896Y-12480222D02*
X9893896Y-12499269D01*
X9893896Y-12499269D02*
X9798658Y-12518317D01*
X10065325Y-12584984D02*
X10065325Y-12384984D01*
X10065325Y-12575460D02*
X10046277Y-12584984D01*
X10046277Y-12584984D02*
X10008182Y-12584984D01*
X10008182Y-12584984D02*
X9989135Y-12575460D01*
X9989135Y-12575460D02*
X9979611Y-12565936D01*
X9979611Y-12565936D02*
X9970087Y-12546888D01*
X9970087Y-12546888D02*
X9970087Y-12489746D01*
X9970087Y-12489746D02*
X9979611Y-12470698D01*
X9979611Y-12470698D02*
X9989135Y-12461174D01*
X9989135Y-12461174D02*
X10008182Y-12451650D01*
X10008182Y-12451650D02*
X10046277Y-12451650D01*
X10046277Y-12451650D02*
X10065325Y-12461174D01*
X10141516Y-12661174D02*
X10151039Y-12651650D01*
X10151039Y-12651650D02*
X10170087Y-12623079D01*
X10170087Y-12623079D02*
X10179611Y-12604031D01*
X10179611Y-12604031D02*
X10189135Y-12575460D01*
X10189135Y-12575460D02*
X10198658Y-12527841D01*
X10198658Y-12527841D02*
X10198658Y-12489746D01*
X10198658Y-12489746D02*
X10189135Y-12442127D01*
X10189135Y-12442127D02*
X10179611Y-12413555D01*
X10179611Y-12413555D02*
X10170087Y-12394508D01*
X10170087Y-12394508D02*
X10151039Y-12365936D01*
X10151039Y-12365936D02*
X10141516Y-12356412D01*
M02*
