%TF.GenerationSoftware,KiCad,Pcbnew,9.0.1*%
%TF.CreationDate,2026-04-01T10:43:51+07:00*%
%TF.ProjectId,Nhat,4e686174-2e6b-4696-9361-645f70636258,rev?*%
%TF.SameCoordinates,Original*%
%TF.FileFunction,Paste,Bot*%
%TF.FilePolarity,Positive*%
%FSLAX46Y46*%
G04 Gerber Fmt 4.6, Leading zero omitted, Abs format (unit mm)*
G04 Created by KiCad (PCBNEW 9.0.1) date 2026-04-01 10:43:51*
%MOMM*%
%LPD*%
G01*
G04 APERTURE LIST*
G04 Aperture macros list*
%AMRoundRect*
0 Rectangle with rounded corners*
0 $1 Rounding radius*
0 $2 $3 $4 $5 $6 $7 $8 $9 X,Y pos of 4 corners*
0 Add a 4 corners polygon primitive as box body*
4,1,4,$2,$3,$4,$5,$6,$7,$8,$9,$2,$3,0*
0 Add four circle primitives for the rounded corners*
1,1,$1+$1,$2,$3*
1,1,$1+$1,$4,$5*
1,1,$1+$1,$6,$7*
1,1,$1+$1,$8,$9*
0 Add four rect primitives between the rounded corners*
20,1,$1+$1,$2,$3,$4,$5,0*
20,1,$1+$1,$4,$5,$6,$7,0*
20,1,$1+$1,$6,$7,$8,$9,0*
20,1,$1+$1,$8,$9,$2,$3,0*%
G04 Aperture macros list end*
%ADD10RoundRect,0.237500X0.300000X0.237500X-0.300000X0.237500X-0.300000X-0.237500X0.300000X-0.237500X0*%
%ADD11RoundRect,0.150000X-0.825000X-0.150000X0.825000X-0.150000X0.825000X0.150000X-0.825000X0.150000X0*%
%ADD12RoundRect,0.237500X0.237500X-0.300000X0.237500X0.300000X-0.237500X0.300000X-0.237500X-0.300000X0*%
%ADD13RoundRect,0.237500X-0.237500X0.300000X-0.237500X-0.300000X0.237500X-0.300000X0.237500X0.300000X0*%
%ADD14RoundRect,0.150000X-0.587500X-0.150000X0.587500X-0.150000X0.587500X0.150000X-0.587500X0.150000X0*%
%ADD15RoundRect,0.237500X0.237500X-0.250000X0.237500X0.250000X-0.237500X0.250000X-0.237500X-0.250000X0*%
%ADD16RoundRect,0.237500X-0.250000X-0.237500X0.250000X-0.237500X0.250000X0.237500X-0.250000X0.237500X0*%
%ADD17RoundRect,0.237500X0.250000X0.237500X-0.250000X0.237500X-0.250000X-0.237500X0.250000X-0.237500X0*%
%ADD18RoundRect,0.237500X-0.300000X-0.237500X0.300000X-0.237500X0.300000X0.237500X-0.300000X0.237500X0*%
%ADD19RoundRect,0.237500X-0.237500X0.250000X-0.237500X-0.250000X0.237500X-0.250000X0.237500X0.250000X0*%
G04 APERTURE END LIST*
D10*
%TO.C,C17*%
X37425002Y-104315000D03*
X35700000Y-104315000D03*
%TD*%
D11*
%TO.C,U5*%
X60345000Y-105685900D03*
X60345000Y-104415900D03*
X60345000Y-103145900D03*
X60345000Y-101875900D03*
X60345000Y-100605900D03*
X60345000Y-99335900D03*
X60345000Y-98065900D03*
X60345000Y-96795900D03*
X65295000Y-96795900D03*
X65295000Y-98065900D03*
X65295000Y-99335900D03*
X65295000Y-100605900D03*
X65295000Y-101875900D03*
X65295000Y-103145900D03*
X65295000Y-104415900D03*
X65295000Y-105685900D03*
%TD*%
D12*
%TO.C,C12*%
X54290000Y-78485000D03*
X54290000Y-76759998D03*
%TD*%
D13*
%TO.C,C10*%
X58590000Y-86105001D03*
X58590000Y-87830003D03*
%TD*%
D14*
%TO.C,Q1*%
X68382500Y-101360000D03*
X68382500Y-99460000D03*
X70257501Y-100410000D03*
%TD*%
D13*
%TO.C,C6*%
X52860000Y-70990000D03*
X52860000Y-72715002D03*
%TD*%
D15*
%TO.C,R14*%
X72270000Y-101371600D03*
X72270000Y-99546600D03*
%TD*%
D13*
%TO.C,C9*%
X53130000Y-67584998D03*
X53130000Y-69310000D03*
%TD*%
D12*
%TO.C,C5*%
X40940000Y-111045002D03*
X40940000Y-109320000D03*
%TD*%
D14*
%TO.C,Q2*%
X68382500Y-105045900D03*
X68382500Y-103145900D03*
X70257501Y-104095900D03*
%TD*%
D16*
%TO.C,R16*%
X56254999Y-100332950D03*
X58079999Y-100332950D03*
%TD*%
D12*
%TO.C,C13*%
X54300000Y-81855002D03*
X54300000Y-80130000D03*
%TD*%
D15*
%TO.C,R15*%
X39410000Y-111092500D03*
X39410000Y-109267500D03*
%TD*%
%TO.C,R19*%
X64570000Y-115575000D03*
X64570000Y-113750000D03*
%TD*%
D10*
%TO.C,C3*%
X58030000Y-101875900D03*
X56304998Y-101875900D03*
%TD*%
D17*
%TO.C,R22*%
X56085000Y-109320000D03*
X54260000Y-109320000D03*
%TD*%
D18*
%TO.C,C15*%
X65090000Y-87632501D03*
X66815002Y-87632501D03*
%TD*%
D10*
%TO.C,C16*%
X64590000Y-93892501D03*
X62865000Y-93892501D03*
%TD*%
D13*
%TO.C,C11*%
X64340000Y-81024998D03*
X64340000Y-82750000D03*
%TD*%
D16*
%TO.C,R32*%
X61627500Y-88229999D03*
X63452500Y-88229999D03*
%TD*%
D10*
%TO.C,C18*%
X37425002Y-102781751D03*
X35700000Y-102781751D03*
%TD*%
D16*
%TO.C,R17*%
X56254999Y-98790000D03*
X58079999Y-98790000D03*
%TD*%
%TO.C,R31*%
X61627500Y-86690000D03*
X63452500Y-86690000D03*
%TD*%
D15*
%TO.C,R21*%
X39510000Y-93295000D03*
X39510000Y-91470000D03*
%TD*%
D19*
%TO.C,R13*%
X72270000Y-103020000D03*
X72270000Y-104845000D03*
%TD*%
D15*
%TO.C,R18*%
X61570000Y-115575000D03*
X61570000Y-113750000D03*
%TD*%
D13*
%TO.C,C8*%
X43740000Y-65784998D03*
X43740000Y-67510000D03*
%TD*%
D12*
%TO.C,C7*%
X47770000Y-63369999D03*
X47770000Y-61644997D03*
%TD*%
M02*
