%TF.GenerationSoftware,KiCad,Pcbnew,9.0.1*%
%TF.CreationDate,2026-04-01T10:43:51+07:00*%
%TF.ProjectId,Nhat,4e686174-2e6b-4696-9361-645f70636258,rev?*%
%TF.SameCoordinates,Original*%
%TF.FileFunction,Legend,Bot*%
%TF.FilePolarity,Positive*%
%FSLAX46Y46*%
G04 Gerber Fmt 4.6, Leading zero omitted, Abs format (unit mm)*
G04 Created by KiCad (PCBNEW 9.0.1) date 2026-04-01 10:43:51*
%MOMM*%
%LPD*%
G01*
G04 APERTURE LIST*
%ADD10C,0.150000*%
%ADD11C,0.120000*%
G04 APERTURE END LIST*
D10*
X37205358Y-107221330D02*
X37252977Y-107268950D01*
X37252977Y-107268950D02*
X37395834Y-107316569D01*
X37395834Y-107316569D02*
X37491072Y-107316569D01*
X37491072Y-107316569D02*
X37633929Y-107268950D01*
X37633929Y-107268950D02*
X37729167Y-107173711D01*
X37729167Y-107173711D02*
X37776786Y-107078473D01*
X37776786Y-107078473D02*
X37824405Y-106887997D01*
X37824405Y-106887997D02*
X37824405Y-106745140D01*
X37824405Y-106745140D02*
X37776786Y-106554664D01*
X37776786Y-106554664D02*
X37729167Y-106459426D01*
X37729167Y-106459426D02*
X37633929Y-106364188D01*
X37633929Y-106364188D02*
X37491072Y-106316569D01*
X37491072Y-106316569D02*
X37395834Y-106316569D01*
X37395834Y-106316569D02*
X37252977Y-106364188D01*
X37252977Y-106364188D02*
X37205358Y-106411807D01*
X36252977Y-107316569D02*
X36824405Y-107316569D01*
X36538691Y-107316569D02*
X36538691Y-106316569D01*
X36538691Y-106316569D02*
X36633929Y-106459426D01*
X36633929Y-106459426D02*
X36729167Y-106554664D01*
X36729167Y-106554664D02*
X36824405Y-106602283D01*
X35919643Y-106316569D02*
X35252977Y-106316569D01*
X35252977Y-106316569D02*
X35681548Y-107316569D01*
X63581904Y-106595719D02*
X63581904Y-107405242D01*
X63581904Y-107405242D02*
X63534285Y-107500480D01*
X63534285Y-107500480D02*
X63486666Y-107548100D01*
X63486666Y-107548100D02*
X63391428Y-107595719D01*
X63391428Y-107595719D02*
X63200952Y-107595719D01*
X63200952Y-107595719D02*
X63105714Y-107548100D01*
X63105714Y-107548100D02*
X63058095Y-107500480D01*
X63058095Y-107500480D02*
X63010476Y-107405242D01*
X63010476Y-107405242D02*
X63010476Y-106595719D01*
X62058095Y-106595719D02*
X62534285Y-106595719D01*
X62534285Y-106595719D02*
X62581904Y-107071909D01*
X62581904Y-107071909D02*
X62534285Y-107024290D01*
X62534285Y-107024290D02*
X62439047Y-106976671D01*
X62439047Y-106976671D02*
X62200952Y-106976671D01*
X62200952Y-106976671D02*
X62105714Y-107024290D01*
X62105714Y-107024290D02*
X62058095Y-107071909D01*
X62058095Y-107071909D02*
X62010476Y-107167147D01*
X62010476Y-107167147D02*
X62010476Y-107405242D01*
X62010476Y-107405242D02*
X62058095Y-107500480D01*
X62058095Y-107500480D02*
X62105714Y-107548100D01*
X62105714Y-107548100D02*
X62200952Y-107595719D01*
X62200952Y-107595719D02*
X62439047Y-107595719D01*
X62439047Y-107595719D02*
X62534285Y-107548100D01*
X62534285Y-107548100D02*
X62581904Y-107500480D01*
X56079580Y-76979641D02*
X56127200Y-76932022D01*
X56127200Y-76932022D02*
X56174819Y-76789165D01*
X56174819Y-76789165D02*
X56174819Y-76693927D01*
X56174819Y-76693927D02*
X56127200Y-76551070D01*
X56127200Y-76551070D02*
X56031961Y-76455832D01*
X56031961Y-76455832D02*
X55936723Y-76408213D01*
X55936723Y-76408213D02*
X55746247Y-76360594D01*
X55746247Y-76360594D02*
X55603390Y-76360594D01*
X55603390Y-76360594D02*
X55412914Y-76408213D01*
X55412914Y-76408213D02*
X55317676Y-76455832D01*
X55317676Y-76455832D02*
X55222438Y-76551070D01*
X55222438Y-76551070D02*
X55174819Y-76693927D01*
X55174819Y-76693927D02*
X55174819Y-76789165D01*
X55174819Y-76789165D02*
X55222438Y-76932022D01*
X55222438Y-76932022D02*
X55270057Y-76979641D01*
X56174819Y-77932022D02*
X56174819Y-77360594D01*
X56174819Y-77646308D02*
X55174819Y-77646308D01*
X55174819Y-77646308D02*
X55317676Y-77551070D01*
X55317676Y-77551070D02*
X55412914Y-77455832D01*
X55412914Y-77455832D02*
X55460533Y-77360594D01*
X55270057Y-78312975D02*
X55222438Y-78360594D01*
X55222438Y-78360594D02*
X55174819Y-78455832D01*
X55174819Y-78455832D02*
X55174819Y-78693927D01*
X55174819Y-78693927D02*
X55222438Y-78789165D01*
X55222438Y-78789165D02*
X55270057Y-78836784D01*
X55270057Y-78836784D02*
X55365295Y-78884403D01*
X55365295Y-78884403D02*
X55460533Y-78884403D01*
X55460533Y-78884403D02*
X55603390Y-78836784D01*
X55603390Y-78836784D02*
X56174819Y-78265356D01*
X56174819Y-78265356D02*
X56174819Y-78884403D01*
X57519580Y-86324644D02*
X57567200Y-86277025D01*
X57567200Y-86277025D02*
X57614819Y-86134168D01*
X57614819Y-86134168D02*
X57614819Y-86038930D01*
X57614819Y-86038930D02*
X57567200Y-85896073D01*
X57567200Y-85896073D02*
X57471961Y-85800835D01*
X57471961Y-85800835D02*
X57376723Y-85753216D01*
X57376723Y-85753216D02*
X57186247Y-85705597D01*
X57186247Y-85705597D02*
X57043390Y-85705597D01*
X57043390Y-85705597D02*
X56852914Y-85753216D01*
X56852914Y-85753216D02*
X56757676Y-85800835D01*
X56757676Y-85800835D02*
X56662438Y-85896073D01*
X56662438Y-85896073D02*
X56614819Y-86038930D01*
X56614819Y-86038930D02*
X56614819Y-86134168D01*
X56614819Y-86134168D02*
X56662438Y-86277025D01*
X56662438Y-86277025D02*
X56710057Y-86324644D01*
X57614819Y-87277025D02*
X57614819Y-86705597D01*
X57614819Y-86991311D02*
X56614819Y-86991311D01*
X56614819Y-86991311D02*
X56757676Y-86896073D01*
X56757676Y-86896073D02*
X56852914Y-86800835D01*
X56852914Y-86800835D02*
X56900533Y-86705597D01*
X56614819Y-87896073D02*
X56614819Y-87991311D01*
X56614819Y-87991311D02*
X56662438Y-88086549D01*
X56662438Y-88086549D02*
X56710057Y-88134168D01*
X56710057Y-88134168D02*
X56805295Y-88181787D01*
X56805295Y-88181787D02*
X56995771Y-88229406D01*
X56995771Y-88229406D02*
X57233866Y-88229406D01*
X57233866Y-88229406D02*
X57424342Y-88181787D01*
X57424342Y-88181787D02*
X57519580Y-88134168D01*
X57519580Y-88134168D02*
X57567200Y-88086549D01*
X57567200Y-88086549D02*
X57614819Y-87991311D01*
X57614819Y-87991311D02*
X57614819Y-87896073D01*
X57614819Y-87896073D02*
X57567200Y-87800835D01*
X57567200Y-87800835D02*
X57519580Y-87753216D01*
X57519580Y-87753216D02*
X57424342Y-87705597D01*
X57424342Y-87705597D02*
X57233866Y-87657978D01*
X57233866Y-87657978D02*
X56995771Y-87657978D01*
X56995771Y-87657978D02*
X56805295Y-87705597D01*
X56805295Y-87705597D02*
X56710057Y-87753216D01*
X56710057Y-87753216D02*
X56662438Y-87800835D01*
X56662438Y-87800835D02*
X56614819Y-87896073D01*
X69415238Y-98557557D02*
X69510476Y-98509938D01*
X69510476Y-98509938D02*
X69605714Y-98414700D01*
X69605714Y-98414700D02*
X69748571Y-98271842D01*
X69748571Y-98271842D02*
X69843809Y-98224223D01*
X69843809Y-98224223D02*
X69939047Y-98224223D01*
X69891428Y-98462319D02*
X69986666Y-98414700D01*
X69986666Y-98414700D02*
X70081904Y-98319461D01*
X70081904Y-98319461D02*
X70129523Y-98128985D01*
X70129523Y-98128985D02*
X70129523Y-97795652D01*
X70129523Y-97795652D02*
X70081904Y-97605176D01*
X70081904Y-97605176D02*
X69986666Y-97509938D01*
X69986666Y-97509938D02*
X69891428Y-97462319D01*
X69891428Y-97462319D02*
X69700952Y-97462319D01*
X69700952Y-97462319D02*
X69605714Y-97509938D01*
X69605714Y-97509938D02*
X69510476Y-97605176D01*
X69510476Y-97605176D02*
X69462857Y-97795652D01*
X69462857Y-97795652D02*
X69462857Y-98128985D01*
X69462857Y-98128985D02*
X69510476Y-98319461D01*
X69510476Y-98319461D02*
X69605714Y-98414700D01*
X69605714Y-98414700D02*
X69700952Y-98462319D01*
X69700952Y-98462319D02*
X69891428Y-98462319D01*
X68510476Y-98462319D02*
X69081904Y-98462319D01*
X68796190Y-98462319D02*
X68796190Y-97462319D01*
X68796190Y-97462319D02*
X68891428Y-97605176D01*
X68891428Y-97605176D02*
X68986666Y-97700414D01*
X68986666Y-97700414D02*
X69081904Y-97748033D01*
X51789580Y-71685834D02*
X51837200Y-71638215D01*
X51837200Y-71638215D02*
X51884819Y-71495358D01*
X51884819Y-71495358D02*
X51884819Y-71400120D01*
X51884819Y-71400120D02*
X51837200Y-71257263D01*
X51837200Y-71257263D02*
X51741961Y-71162025D01*
X51741961Y-71162025D02*
X51646723Y-71114406D01*
X51646723Y-71114406D02*
X51456247Y-71066787D01*
X51456247Y-71066787D02*
X51313390Y-71066787D01*
X51313390Y-71066787D02*
X51122914Y-71114406D01*
X51122914Y-71114406D02*
X51027676Y-71162025D01*
X51027676Y-71162025D02*
X50932438Y-71257263D01*
X50932438Y-71257263D02*
X50884819Y-71400120D01*
X50884819Y-71400120D02*
X50884819Y-71495358D01*
X50884819Y-71495358D02*
X50932438Y-71638215D01*
X50932438Y-71638215D02*
X50980057Y-71685834D01*
X50884819Y-72542977D02*
X50884819Y-72352501D01*
X50884819Y-72352501D02*
X50932438Y-72257263D01*
X50932438Y-72257263D02*
X50980057Y-72209644D01*
X50980057Y-72209644D02*
X51122914Y-72114406D01*
X51122914Y-72114406D02*
X51313390Y-72066787D01*
X51313390Y-72066787D02*
X51694342Y-72066787D01*
X51694342Y-72066787D02*
X51789580Y-72114406D01*
X51789580Y-72114406D02*
X51837200Y-72162025D01*
X51837200Y-72162025D02*
X51884819Y-72257263D01*
X51884819Y-72257263D02*
X51884819Y-72447739D01*
X51884819Y-72447739D02*
X51837200Y-72542977D01*
X51837200Y-72542977D02*
X51789580Y-72590596D01*
X51789580Y-72590596D02*
X51694342Y-72638215D01*
X51694342Y-72638215D02*
X51456247Y-72638215D01*
X51456247Y-72638215D02*
X51361009Y-72590596D01*
X51361009Y-72590596D02*
X51313390Y-72542977D01*
X51313390Y-72542977D02*
X51265771Y-72447739D01*
X51265771Y-72447739D02*
X51265771Y-72257263D01*
X51265771Y-72257263D02*
X51313390Y-72162025D01*
X51313390Y-72162025D02*
X51361009Y-72114406D01*
X51361009Y-72114406D02*
X51456247Y-72066787D01*
X72724819Y-96556242D02*
X72248628Y-96222909D01*
X72724819Y-95984814D02*
X71724819Y-95984814D01*
X71724819Y-95984814D02*
X71724819Y-96365766D01*
X71724819Y-96365766D02*
X71772438Y-96461004D01*
X71772438Y-96461004D02*
X71820057Y-96508623D01*
X71820057Y-96508623D02*
X71915295Y-96556242D01*
X71915295Y-96556242D02*
X72058152Y-96556242D01*
X72058152Y-96556242D02*
X72153390Y-96508623D01*
X72153390Y-96508623D02*
X72201009Y-96461004D01*
X72201009Y-96461004D02*
X72248628Y-96365766D01*
X72248628Y-96365766D02*
X72248628Y-95984814D01*
X72724819Y-97508623D02*
X72724819Y-96937195D01*
X72724819Y-97222909D02*
X71724819Y-97222909D01*
X71724819Y-97222909D02*
X71867676Y-97127671D01*
X71867676Y-97127671D02*
X71962914Y-97032433D01*
X71962914Y-97032433D02*
X72010533Y-96937195D01*
X72058152Y-98365766D02*
X72724819Y-98365766D01*
X71677200Y-98127671D02*
X72391485Y-97889576D01*
X72391485Y-97889576D02*
X72391485Y-98508623D01*
X52059580Y-68280832D02*
X52107200Y-68233213D01*
X52107200Y-68233213D02*
X52154819Y-68090356D01*
X52154819Y-68090356D02*
X52154819Y-67995118D01*
X52154819Y-67995118D02*
X52107200Y-67852261D01*
X52107200Y-67852261D02*
X52011961Y-67757023D01*
X52011961Y-67757023D02*
X51916723Y-67709404D01*
X51916723Y-67709404D02*
X51726247Y-67661785D01*
X51726247Y-67661785D02*
X51583390Y-67661785D01*
X51583390Y-67661785D02*
X51392914Y-67709404D01*
X51392914Y-67709404D02*
X51297676Y-67757023D01*
X51297676Y-67757023D02*
X51202438Y-67852261D01*
X51202438Y-67852261D02*
X51154819Y-67995118D01*
X51154819Y-67995118D02*
X51154819Y-68090356D01*
X51154819Y-68090356D02*
X51202438Y-68233213D01*
X51202438Y-68233213D02*
X51250057Y-68280832D01*
X52154819Y-68757023D02*
X52154819Y-68947499D01*
X52154819Y-68947499D02*
X52107200Y-69042737D01*
X52107200Y-69042737D02*
X52059580Y-69090356D01*
X52059580Y-69090356D02*
X51916723Y-69185594D01*
X51916723Y-69185594D02*
X51726247Y-69233213D01*
X51726247Y-69233213D02*
X51345295Y-69233213D01*
X51345295Y-69233213D02*
X51250057Y-69185594D01*
X51250057Y-69185594D02*
X51202438Y-69137975D01*
X51202438Y-69137975D02*
X51154819Y-69042737D01*
X51154819Y-69042737D02*
X51154819Y-68852261D01*
X51154819Y-68852261D02*
X51202438Y-68757023D01*
X51202438Y-68757023D02*
X51250057Y-68709404D01*
X51250057Y-68709404D02*
X51345295Y-68661785D01*
X51345295Y-68661785D02*
X51583390Y-68661785D01*
X51583390Y-68661785D02*
X51678628Y-68709404D01*
X51678628Y-68709404D02*
X51726247Y-68757023D01*
X51726247Y-68757023D02*
X51773866Y-68852261D01*
X51773866Y-68852261D02*
X51773866Y-69042737D01*
X51773866Y-69042737D02*
X51726247Y-69137975D01*
X51726247Y-69137975D02*
X51678628Y-69185594D01*
X51678628Y-69185594D02*
X51583390Y-69233213D01*
X41299580Y-112653332D02*
X41347200Y-112605713D01*
X41347200Y-112605713D02*
X41394819Y-112462856D01*
X41394819Y-112462856D02*
X41394819Y-112367618D01*
X41394819Y-112367618D02*
X41347200Y-112224761D01*
X41347200Y-112224761D02*
X41251961Y-112129523D01*
X41251961Y-112129523D02*
X41156723Y-112081904D01*
X41156723Y-112081904D02*
X40966247Y-112034285D01*
X40966247Y-112034285D02*
X40823390Y-112034285D01*
X40823390Y-112034285D02*
X40632914Y-112081904D01*
X40632914Y-112081904D02*
X40537676Y-112129523D01*
X40537676Y-112129523D02*
X40442438Y-112224761D01*
X40442438Y-112224761D02*
X40394819Y-112367618D01*
X40394819Y-112367618D02*
X40394819Y-112462856D01*
X40394819Y-112462856D02*
X40442438Y-112605713D01*
X40442438Y-112605713D02*
X40490057Y-112653332D01*
X40394819Y-113558094D02*
X40394819Y-113081904D01*
X40394819Y-113081904D02*
X40871009Y-113034285D01*
X40871009Y-113034285D02*
X40823390Y-113081904D01*
X40823390Y-113081904D02*
X40775771Y-113177142D01*
X40775771Y-113177142D02*
X40775771Y-113415237D01*
X40775771Y-113415237D02*
X40823390Y-113510475D01*
X40823390Y-113510475D02*
X40871009Y-113558094D01*
X40871009Y-113558094D02*
X40966247Y-113605713D01*
X40966247Y-113605713D02*
X41204342Y-113605713D01*
X41204342Y-113605713D02*
X41299580Y-113558094D01*
X41299580Y-113558094D02*
X41347200Y-113510475D01*
X41347200Y-113510475D02*
X41394819Y-113415237D01*
X41394819Y-113415237D02*
X41394819Y-113177142D01*
X41394819Y-113177142D02*
X41347200Y-113081904D01*
X41347200Y-113081904D02*
X41299580Y-113034285D01*
X69415238Y-107035957D02*
X69510476Y-106988338D01*
X69510476Y-106988338D02*
X69605714Y-106893100D01*
X69605714Y-106893100D02*
X69748571Y-106750242D01*
X69748571Y-106750242D02*
X69843809Y-106702623D01*
X69843809Y-106702623D02*
X69939047Y-106702623D01*
X69891428Y-106940719D02*
X69986666Y-106893100D01*
X69986666Y-106893100D02*
X70081904Y-106797861D01*
X70081904Y-106797861D02*
X70129523Y-106607385D01*
X70129523Y-106607385D02*
X70129523Y-106274052D01*
X70129523Y-106274052D02*
X70081904Y-106083576D01*
X70081904Y-106083576D02*
X69986666Y-105988338D01*
X69986666Y-105988338D02*
X69891428Y-105940719D01*
X69891428Y-105940719D02*
X69700952Y-105940719D01*
X69700952Y-105940719D02*
X69605714Y-105988338D01*
X69605714Y-105988338D02*
X69510476Y-106083576D01*
X69510476Y-106083576D02*
X69462857Y-106274052D01*
X69462857Y-106274052D02*
X69462857Y-106607385D01*
X69462857Y-106607385D02*
X69510476Y-106797861D01*
X69510476Y-106797861D02*
X69605714Y-106893100D01*
X69605714Y-106893100D02*
X69700952Y-106940719D01*
X69700952Y-106940719D02*
X69891428Y-106940719D01*
X69081904Y-106035957D02*
X69034285Y-105988338D01*
X69034285Y-105988338D02*
X68939047Y-105940719D01*
X68939047Y-105940719D02*
X68700952Y-105940719D01*
X68700952Y-105940719D02*
X68605714Y-105988338D01*
X68605714Y-105988338D02*
X68558095Y-106035957D01*
X68558095Y-106035957D02*
X68510476Y-106131195D01*
X68510476Y-106131195D02*
X68510476Y-106226433D01*
X68510476Y-106226433D02*
X68558095Y-106369290D01*
X68558095Y-106369290D02*
X69129523Y-106940719D01*
X69129523Y-106940719D02*
X68510476Y-106940719D01*
X54792856Y-100787769D02*
X55126189Y-100311578D01*
X55364284Y-100787769D02*
X55364284Y-99787769D01*
X55364284Y-99787769D02*
X54983332Y-99787769D01*
X54983332Y-99787769D02*
X54888094Y-99835388D01*
X54888094Y-99835388D02*
X54840475Y-99883007D01*
X54840475Y-99883007D02*
X54792856Y-99978245D01*
X54792856Y-99978245D02*
X54792856Y-100121102D01*
X54792856Y-100121102D02*
X54840475Y-100216340D01*
X54840475Y-100216340D02*
X54888094Y-100263959D01*
X54888094Y-100263959D02*
X54983332Y-100311578D01*
X54983332Y-100311578D02*
X55364284Y-100311578D01*
X53840475Y-100787769D02*
X54411903Y-100787769D01*
X54126189Y-100787769D02*
X54126189Y-99787769D01*
X54126189Y-99787769D02*
X54221427Y-99930626D01*
X54221427Y-99930626D02*
X54316665Y-100025864D01*
X54316665Y-100025864D02*
X54411903Y-100073483D01*
X52983332Y-99787769D02*
X53173808Y-99787769D01*
X53173808Y-99787769D02*
X53269046Y-99835388D01*
X53269046Y-99835388D02*
X53316665Y-99883007D01*
X53316665Y-99883007D02*
X53411903Y-100025864D01*
X53411903Y-100025864D02*
X53459522Y-100216340D01*
X53459522Y-100216340D02*
X53459522Y-100597292D01*
X53459522Y-100597292D02*
X53411903Y-100692530D01*
X53411903Y-100692530D02*
X53364284Y-100740150D01*
X53364284Y-100740150D02*
X53269046Y-100787769D01*
X53269046Y-100787769D02*
X53078570Y-100787769D01*
X53078570Y-100787769D02*
X52983332Y-100740150D01*
X52983332Y-100740150D02*
X52935713Y-100692530D01*
X52935713Y-100692530D02*
X52888094Y-100597292D01*
X52888094Y-100597292D02*
X52888094Y-100359197D01*
X52888094Y-100359197D02*
X52935713Y-100263959D01*
X52935713Y-100263959D02*
X52983332Y-100216340D01*
X52983332Y-100216340D02*
X53078570Y-100168721D01*
X53078570Y-100168721D02*
X53269046Y-100168721D01*
X53269046Y-100168721D02*
X53364284Y-100216340D01*
X53364284Y-100216340D02*
X53411903Y-100263959D01*
X53411903Y-100263959D02*
X53459522Y-100359197D01*
X56089580Y-80349643D02*
X56137200Y-80302024D01*
X56137200Y-80302024D02*
X56184819Y-80159167D01*
X56184819Y-80159167D02*
X56184819Y-80063929D01*
X56184819Y-80063929D02*
X56137200Y-79921072D01*
X56137200Y-79921072D02*
X56041961Y-79825834D01*
X56041961Y-79825834D02*
X55946723Y-79778215D01*
X55946723Y-79778215D02*
X55756247Y-79730596D01*
X55756247Y-79730596D02*
X55613390Y-79730596D01*
X55613390Y-79730596D02*
X55422914Y-79778215D01*
X55422914Y-79778215D02*
X55327676Y-79825834D01*
X55327676Y-79825834D02*
X55232438Y-79921072D01*
X55232438Y-79921072D02*
X55184819Y-80063929D01*
X55184819Y-80063929D02*
X55184819Y-80159167D01*
X55184819Y-80159167D02*
X55232438Y-80302024D01*
X55232438Y-80302024D02*
X55280057Y-80349643D01*
X56184819Y-81302024D02*
X56184819Y-80730596D01*
X56184819Y-81016310D02*
X55184819Y-81016310D01*
X55184819Y-81016310D02*
X55327676Y-80921072D01*
X55327676Y-80921072D02*
X55422914Y-80825834D01*
X55422914Y-80825834D02*
X55470533Y-80730596D01*
X55184819Y-81635358D02*
X55184819Y-82254405D01*
X55184819Y-82254405D02*
X55565771Y-81921072D01*
X55565771Y-81921072D02*
X55565771Y-82063929D01*
X55565771Y-82063929D02*
X55613390Y-82159167D01*
X55613390Y-82159167D02*
X55661009Y-82206786D01*
X55661009Y-82206786D02*
X55756247Y-82254405D01*
X55756247Y-82254405D02*
X55994342Y-82254405D01*
X55994342Y-82254405D02*
X56089580Y-82206786D01*
X56089580Y-82206786D02*
X56137200Y-82159167D01*
X56137200Y-82159167D02*
X56184819Y-82063929D01*
X56184819Y-82063929D02*
X56184819Y-81778215D01*
X56184819Y-81778215D02*
X56137200Y-81682977D01*
X56137200Y-81682977D02*
X56089580Y-81635358D01*
X39864819Y-112654641D02*
X39388628Y-112321308D01*
X39864819Y-112083213D02*
X38864819Y-112083213D01*
X38864819Y-112083213D02*
X38864819Y-112464165D01*
X38864819Y-112464165D02*
X38912438Y-112559403D01*
X38912438Y-112559403D02*
X38960057Y-112607022D01*
X38960057Y-112607022D02*
X39055295Y-112654641D01*
X39055295Y-112654641D02*
X39198152Y-112654641D01*
X39198152Y-112654641D02*
X39293390Y-112607022D01*
X39293390Y-112607022D02*
X39341009Y-112559403D01*
X39341009Y-112559403D02*
X39388628Y-112464165D01*
X39388628Y-112464165D02*
X39388628Y-112083213D01*
X39864819Y-113607022D02*
X39864819Y-113035594D01*
X39864819Y-113321308D02*
X38864819Y-113321308D01*
X38864819Y-113321308D02*
X39007676Y-113226070D01*
X39007676Y-113226070D02*
X39102914Y-113130832D01*
X39102914Y-113130832D02*
X39150533Y-113035594D01*
X38864819Y-114511784D02*
X38864819Y-114035594D01*
X38864819Y-114035594D02*
X39341009Y-113987975D01*
X39341009Y-113987975D02*
X39293390Y-114035594D01*
X39293390Y-114035594D02*
X39245771Y-114130832D01*
X39245771Y-114130832D02*
X39245771Y-114368927D01*
X39245771Y-114368927D02*
X39293390Y-114464165D01*
X39293390Y-114464165D02*
X39341009Y-114511784D01*
X39341009Y-114511784D02*
X39436247Y-114559403D01*
X39436247Y-114559403D02*
X39674342Y-114559403D01*
X39674342Y-114559403D02*
X39769580Y-114511784D01*
X39769580Y-114511784D02*
X39817200Y-114464165D01*
X39817200Y-114464165D02*
X39864819Y-114368927D01*
X39864819Y-114368927D02*
X39864819Y-114130832D01*
X39864819Y-114130832D02*
X39817200Y-114035594D01*
X39817200Y-114035594D02*
X39769580Y-113987975D01*
X65034819Y-110907142D02*
X64558628Y-110573809D01*
X65034819Y-110335714D02*
X64034819Y-110335714D01*
X64034819Y-110335714D02*
X64034819Y-110716666D01*
X64034819Y-110716666D02*
X64082438Y-110811904D01*
X64082438Y-110811904D02*
X64130057Y-110859523D01*
X64130057Y-110859523D02*
X64225295Y-110907142D01*
X64225295Y-110907142D02*
X64368152Y-110907142D01*
X64368152Y-110907142D02*
X64463390Y-110859523D01*
X64463390Y-110859523D02*
X64511009Y-110811904D01*
X64511009Y-110811904D02*
X64558628Y-110716666D01*
X64558628Y-110716666D02*
X64558628Y-110335714D01*
X65034819Y-111859523D02*
X65034819Y-111288095D01*
X65034819Y-111573809D02*
X64034819Y-111573809D01*
X64034819Y-111573809D02*
X64177676Y-111478571D01*
X64177676Y-111478571D02*
X64272914Y-111383333D01*
X64272914Y-111383333D02*
X64320533Y-111288095D01*
X65034819Y-112335714D02*
X65034819Y-112526190D01*
X65034819Y-112526190D02*
X64987200Y-112621428D01*
X64987200Y-112621428D02*
X64939580Y-112669047D01*
X64939580Y-112669047D02*
X64796723Y-112764285D01*
X64796723Y-112764285D02*
X64606247Y-112811904D01*
X64606247Y-112811904D02*
X64225295Y-112811904D01*
X64225295Y-112811904D02*
X64130057Y-112764285D01*
X64130057Y-112764285D02*
X64082438Y-112716666D01*
X64082438Y-112716666D02*
X64034819Y-112621428D01*
X64034819Y-112621428D02*
X64034819Y-112430952D01*
X64034819Y-112430952D02*
X64082438Y-112335714D01*
X64082438Y-112335714D02*
X64130057Y-112288095D01*
X64130057Y-112288095D02*
X64225295Y-112240476D01*
X64225295Y-112240476D02*
X64463390Y-112240476D01*
X64463390Y-112240476D02*
X64558628Y-112288095D01*
X64558628Y-112288095D02*
X64606247Y-112335714D01*
X64606247Y-112335714D02*
X64653866Y-112430952D01*
X64653866Y-112430952D02*
X64653866Y-112621428D01*
X64653866Y-112621428D02*
X64606247Y-112716666D01*
X64606247Y-112716666D02*
X64558628Y-112764285D01*
X64558628Y-112764285D02*
X64463390Y-112811904D01*
X54754166Y-102235480D02*
X54801785Y-102283100D01*
X54801785Y-102283100D02*
X54944642Y-102330719D01*
X54944642Y-102330719D02*
X55039880Y-102330719D01*
X55039880Y-102330719D02*
X55182737Y-102283100D01*
X55182737Y-102283100D02*
X55277975Y-102187861D01*
X55277975Y-102187861D02*
X55325594Y-102092623D01*
X55325594Y-102092623D02*
X55373213Y-101902147D01*
X55373213Y-101902147D02*
X55373213Y-101759290D01*
X55373213Y-101759290D02*
X55325594Y-101568814D01*
X55325594Y-101568814D02*
X55277975Y-101473576D01*
X55277975Y-101473576D02*
X55182737Y-101378338D01*
X55182737Y-101378338D02*
X55039880Y-101330719D01*
X55039880Y-101330719D02*
X54944642Y-101330719D01*
X54944642Y-101330719D02*
X54801785Y-101378338D01*
X54801785Y-101378338D02*
X54754166Y-101425957D01*
X54420832Y-101330719D02*
X53801785Y-101330719D01*
X53801785Y-101330719D02*
X54135118Y-101711671D01*
X54135118Y-101711671D02*
X53992261Y-101711671D01*
X53992261Y-101711671D02*
X53897023Y-101759290D01*
X53897023Y-101759290D02*
X53849404Y-101806909D01*
X53849404Y-101806909D02*
X53801785Y-101902147D01*
X53801785Y-101902147D02*
X53801785Y-102140242D01*
X53801785Y-102140242D02*
X53849404Y-102235480D01*
X53849404Y-102235480D02*
X53897023Y-102283100D01*
X53897023Y-102283100D02*
X53992261Y-102330719D01*
X53992261Y-102330719D02*
X54277975Y-102330719D01*
X54277975Y-102330719D02*
X54373213Y-102283100D01*
X54373213Y-102283100D02*
X54420832Y-102235480D01*
X55815357Y-108344819D02*
X56148690Y-107868628D01*
X56386785Y-108344819D02*
X56386785Y-107344819D01*
X56386785Y-107344819D02*
X56005833Y-107344819D01*
X56005833Y-107344819D02*
X55910595Y-107392438D01*
X55910595Y-107392438D02*
X55862976Y-107440057D01*
X55862976Y-107440057D02*
X55815357Y-107535295D01*
X55815357Y-107535295D02*
X55815357Y-107678152D01*
X55815357Y-107678152D02*
X55862976Y-107773390D01*
X55862976Y-107773390D02*
X55910595Y-107821009D01*
X55910595Y-107821009D02*
X56005833Y-107868628D01*
X56005833Y-107868628D02*
X56386785Y-107868628D01*
X55434404Y-107440057D02*
X55386785Y-107392438D01*
X55386785Y-107392438D02*
X55291547Y-107344819D01*
X55291547Y-107344819D02*
X55053452Y-107344819D01*
X55053452Y-107344819D02*
X54958214Y-107392438D01*
X54958214Y-107392438D02*
X54910595Y-107440057D01*
X54910595Y-107440057D02*
X54862976Y-107535295D01*
X54862976Y-107535295D02*
X54862976Y-107630533D01*
X54862976Y-107630533D02*
X54910595Y-107773390D01*
X54910595Y-107773390D02*
X55482023Y-108344819D01*
X55482023Y-108344819D02*
X54862976Y-108344819D01*
X54482023Y-107440057D02*
X54434404Y-107392438D01*
X54434404Y-107392438D02*
X54339166Y-107344819D01*
X54339166Y-107344819D02*
X54101071Y-107344819D01*
X54101071Y-107344819D02*
X54005833Y-107392438D01*
X54005833Y-107392438D02*
X53958214Y-107440057D01*
X53958214Y-107440057D02*
X53910595Y-107535295D01*
X53910595Y-107535295D02*
X53910595Y-107630533D01*
X53910595Y-107630533D02*
X53958214Y-107773390D01*
X53958214Y-107773390D02*
X54529642Y-108344819D01*
X54529642Y-108344819D02*
X53910595Y-108344819D01*
X66595358Y-89422081D02*
X66642977Y-89469701D01*
X66642977Y-89469701D02*
X66785834Y-89517320D01*
X66785834Y-89517320D02*
X66881072Y-89517320D01*
X66881072Y-89517320D02*
X67023929Y-89469701D01*
X67023929Y-89469701D02*
X67119167Y-89374462D01*
X67119167Y-89374462D02*
X67166786Y-89279224D01*
X67166786Y-89279224D02*
X67214405Y-89088748D01*
X67214405Y-89088748D02*
X67214405Y-88945891D01*
X67214405Y-88945891D02*
X67166786Y-88755415D01*
X67166786Y-88755415D02*
X67119167Y-88660177D01*
X67119167Y-88660177D02*
X67023929Y-88564939D01*
X67023929Y-88564939D02*
X66881072Y-88517320D01*
X66881072Y-88517320D02*
X66785834Y-88517320D01*
X66785834Y-88517320D02*
X66642977Y-88564939D01*
X66642977Y-88564939D02*
X66595358Y-88612558D01*
X65642977Y-89517320D02*
X66214405Y-89517320D01*
X65928691Y-89517320D02*
X65928691Y-88517320D01*
X65928691Y-88517320D02*
X66023929Y-88660177D01*
X66023929Y-88660177D02*
X66119167Y-88755415D01*
X66119167Y-88755415D02*
X66214405Y-88803034D01*
X64738215Y-88517320D02*
X65214405Y-88517320D01*
X65214405Y-88517320D02*
X65262024Y-88993510D01*
X65262024Y-88993510D02*
X65214405Y-88945891D01*
X65214405Y-88945891D02*
X65119167Y-88898272D01*
X65119167Y-88898272D02*
X64881072Y-88898272D01*
X64881072Y-88898272D02*
X64785834Y-88945891D01*
X64785834Y-88945891D02*
X64738215Y-88993510D01*
X64738215Y-88993510D02*
X64690596Y-89088748D01*
X64690596Y-89088748D02*
X64690596Y-89326843D01*
X64690596Y-89326843D02*
X64738215Y-89422081D01*
X64738215Y-89422081D02*
X64785834Y-89469701D01*
X64785834Y-89469701D02*
X64881072Y-89517320D01*
X64881072Y-89517320D02*
X65119167Y-89517320D01*
X65119167Y-89517320D02*
X65214405Y-89469701D01*
X65214405Y-89469701D02*
X65262024Y-89422081D01*
X61202857Y-94252081D02*
X61250476Y-94299701D01*
X61250476Y-94299701D02*
X61393333Y-94347320D01*
X61393333Y-94347320D02*
X61488571Y-94347320D01*
X61488571Y-94347320D02*
X61631428Y-94299701D01*
X61631428Y-94299701D02*
X61726666Y-94204462D01*
X61726666Y-94204462D02*
X61774285Y-94109224D01*
X61774285Y-94109224D02*
X61821904Y-93918748D01*
X61821904Y-93918748D02*
X61821904Y-93775891D01*
X61821904Y-93775891D02*
X61774285Y-93585415D01*
X61774285Y-93585415D02*
X61726666Y-93490177D01*
X61726666Y-93490177D02*
X61631428Y-93394939D01*
X61631428Y-93394939D02*
X61488571Y-93347320D01*
X61488571Y-93347320D02*
X61393333Y-93347320D01*
X61393333Y-93347320D02*
X61250476Y-93394939D01*
X61250476Y-93394939D02*
X61202857Y-93442558D01*
X60250476Y-94347320D02*
X60821904Y-94347320D01*
X60536190Y-94347320D02*
X60536190Y-93347320D01*
X60536190Y-93347320D02*
X60631428Y-93490177D01*
X60631428Y-93490177D02*
X60726666Y-93585415D01*
X60726666Y-93585415D02*
X60821904Y-93633034D01*
X59393333Y-93347320D02*
X59583809Y-93347320D01*
X59583809Y-93347320D02*
X59679047Y-93394939D01*
X59679047Y-93394939D02*
X59726666Y-93442558D01*
X59726666Y-93442558D02*
X59821904Y-93585415D01*
X59821904Y-93585415D02*
X59869523Y-93775891D01*
X59869523Y-93775891D02*
X59869523Y-94156843D01*
X59869523Y-94156843D02*
X59821904Y-94252081D01*
X59821904Y-94252081D02*
X59774285Y-94299701D01*
X59774285Y-94299701D02*
X59679047Y-94347320D01*
X59679047Y-94347320D02*
X59488571Y-94347320D01*
X59488571Y-94347320D02*
X59393333Y-94299701D01*
X59393333Y-94299701D02*
X59345714Y-94252081D01*
X59345714Y-94252081D02*
X59298095Y-94156843D01*
X59298095Y-94156843D02*
X59298095Y-93918748D01*
X59298095Y-93918748D02*
X59345714Y-93823510D01*
X59345714Y-93823510D02*
X59393333Y-93775891D01*
X59393333Y-93775891D02*
X59488571Y-93728272D01*
X59488571Y-93728272D02*
X59679047Y-93728272D01*
X59679047Y-93728272D02*
X59774285Y-93775891D01*
X59774285Y-93775891D02*
X59821904Y-93823510D01*
X59821904Y-93823510D02*
X59869523Y-93918748D01*
X64699580Y-78187142D02*
X64747200Y-78139523D01*
X64747200Y-78139523D02*
X64794819Y-77996666D01*
X64794819Y-77996666D02*
X64794819Y-77901428D01*
X64794819Y-77901428D02*
X64747200Y-77758571D01*
X64747200Y-77758571D02*
X64651961Y-77663333D01*
X64651961Y-77663333D02*
X64556723Y-77615714D01*
X64556723Y-77615714D02*
X64366247Y-77568095D01*
X64366247Y-77568095D02*
X64223390Y-77568095D01*
X64223390Y-77568095D02*
X64032914Y-77615714D01*
X64032914Y-77615714D02*
X63937676Y-77663333D01*
X63937676Y-77663333D02*
X63842438Y-77758571D01*
X63842438Y-77758571D02*
X63794819Y-77901428D01*
X63794819Y-77901428D02*
X63794819Y-77996666D01*
X63794819Y-77996666D02*
X63842438Y-78139523D01*
X63842438Y-78139523D02*
X63890057Y-78187142D01*
X64794819Y-79139523D02*
X64794819Y-78568095D01*
X64794819Y-78853809D02*
X63794819Y-78853809D01*
X63794819Y-78853809D02*
X63937676Y-78758571D01*
X63937676Y-78758571D02*
X64032914Y-78663333D01*
X64032914Y-78663333D02*
X64080533Y-78568095D01*
X64794819Y-80091904D02*
X64794819Y-79520476D01*
X64794819Y-79806190D02*
X63794819Y-79806190D01*
X63794819Y-79806190D02*
X63937676Y-79710952D01*
X63937676Y-79710952D02*
X64032914Y-79615714D01*
X64032914Y-79615714D02*
X64080533Y-79520476D01*
X62720357Y-85654817D02*
X63053690Y-85178626D01*
X63291785Y-85654817D02*
X63291785Y-84654817D01*
X63291785Y-84654817D02*
X62910833Y-84654817D01*
X62910833Y-84654817D02*
X62815595Y-84702436D01*
X62815595Y-84702436D02*
X62767976Y-84750055D01*
X62767976Y-84750055D02*
X62720357Y-84845293D01*
X62720357Y-84845293D02*
X62720357Y-84988150D01*
X62720357Y-84988150D02*
X62767976Y-85083388D01*
X62767976Y-85083388D02*
X62815595Y-85131007D01*
X62815595Y-85131007D02*
X62910833Y-85178626D01*
X62910833Y-85178626D02*
X63291785Y-85178626D01*
X62387023Y-84654817D02*
X61767976Y-84654817D01*
X61767976Y-84654817D02*
X62101309Y-85035769D01*
X62101309Y-85035769D02*
X61958452Y-85035769D01*
X61958452Y-85035769D02*
X61863214Y-85083388D01*
X61863214Y-85083388D02*
X61815595Y-85131007D01*
X61815595Y-85131007D02*
X61767976Y-85226245D01*
X61767976Y-85226245D02*
X61767976Y-85464340D01*
X61767976Y-85464340D02*
X61815595Y-85559578D01*
X61815595Y-85559578D02*
X61863214Y-85607198D01*
X61863214Y-85607198D02*
X61958452Y-85654817D01*
X61958452Y-85654817D02*
X62244166Y-85654817D01*
X62244166Y-85654817D02*
X62339404Y-85607198D01*
X62339404Y-85607198D02*
X62387023Y-85559578D01*
X61387023Y-84750055D02*
X61339404Y-84702436D01*
X61339404Y-84702436D02*
X61244166Y-84654817D01*
X61244166Y-84654817D02*
X61006071Y-84654817D01*
X61006071Y-84654817D02*
X60910833Y-84702436D01*
X60910833Y-84702436D02*
X60863214Y-84750055D01*
X60863214Y-84750055D02*
X60815595Y-84845293D01*
X60815595Y-84845293D02*
X60815595Y-84940531D01*
X60815595Y-84940531D02*
X60863214Y-85083388D01*
X60863214Y-85083388D02*
X61434642Y-85654817D01*
X61434642Y-85654817D02*
X60815595Y-85654817D01*
X37205358Y-106001330D02*
X37252977Y-106048950D01*
X37252977Y-106048950D02*
X37395834Y-106096569D01*
X37395834Y-106096569D02*
X37491072Y-106096569D01*
X37491072Y-106096569D02*
X37633929Y-106048950D01*
X37633929Y-106048950D02*
X37729167Y-105953711D01*
X37729167Y-105953711D02*
X37776786Y-105858473D01*
X37776786Y-105858473D02*
X37824405Y-105667997D01*
X37824405Y-105667997D02*
X37824405Y-105525140D01*
X37824405Y-105525140D02*
X37776786Y-105334664D01*
X37776786Y-105334664D02*
X37729167Y-105239426D01*
X37729167Y-105239426D02*
X37633929Y-105144188D01*
X37633929Y-105144188D02*
X37491072Y-105096569D01*
X37491072Y-105096569D02*
X37395834Y-105096569D01*
X37395834Y-105096569D02*
X37252977Y-105144188D01*
X37252977Y-105144188D02*
X37205358Y-105191807D01*
X36252977Y-106096569D02*
X36824405Y-106096569D01*
X36538691Y-106096569D02*
X36538691Y-105096569D01*
X36538691Y-105096569D02*
X36633929Y-105239426D01*
X36633929Y-105239426D02*
X36729167Y-105334664D01*
X36729167Y-105334664D02*
X36824405Y-105382283D01*
X35681548Y-105525140D02*
X35776786Y-105477521D01*
X35776786Y-105477521D02*
X35824405Y-105429902D01*
X35824405Y-105429902D02*
X35872024Y-105334664D01*
X35872024Y-105334664D02*
X35872024Y-105287045D01*
X35872024Y-105287045D02*
X35824405Y-105191807D01*
X35824405Y-105191807D02*
X35776786Y-105144188D01*
X35776786Y-105144188D02*
X35681548Y-105096569D01*
X35681548Y-105096569D02*
X35491072Y-105096569D01*
X35491072Y-105096569D02*
X35395834Y-105144188D01*
X35395834Y-105144188D02*
X35348215Y-105191807D01*
X35348215Y-105191807D02*
X35300596Y-105287045D01*
X35300596Y-105287045D02*
X35300596Y-105334664D01*
X35300596Y-105334664D02*
X35348215Y-105429902D01*
X35348215Y-105429902D02*
X35395834Y-105477521D01*
X35395834Y-105477521D02*
X35491072Y-105525140D01*
X35491072Y-105525140D02*
X35681548Y-105525140D01*
X35681548Y-105525140D02*
X35776786Y-105572759D01*
X35776786Y-105572759D02*
X35824405Y-105620378D01*
X35824405Y-105620378D02*
X35872024Y-105715616D01*
X35872024Y-105715616D02*
X35872024Y-105906092D01*
X35872024Y-105906092D02*
X35824405Y-106001330D01*
X35824405Y-106001330D02*
X35776786Y-106048950D01*
X35776786Y-106048950D02*
X35681548Y-106096569D01*
X35681548Y-106096569D02*
X35491072Y-106096569D01*
X35491072Y-106096569D02*
X35395834Y-106048950D01*
X35395834Y-106048950D02*
X35348215Y-106001330D01*
X35348215Y-106001330D02*
X35300596Y-105906092D01*
X35300596Y-105906092D02*
X35300596Y-105715616D01*
X35300596Y-105715616D02*
X35348215Y-105620378D01*
X35348215Y-105620378D02*
X35395834Y-105572759D01*
X35395834Y-105572759D02*
X35491072Y-105525140D01*
X54780355Y-99244819D02*
X55113688Y-98768628D01*
X55351783Y-99244819D02*
X55351783Y-98244819D01*
X55351783Y-98244819D02*
X54970831Y-98244819D01*
X54970831Y-98244819D02*
X54875593Y-98292438D01*
X54875593Y-98292438D02*
X54827974Y-98340057D01*
X54827974Y-98340057D02*
X54780355Y-98435295D01*
X54780355Y-98435295D02*
X54780355Y-98578152D01*
X54780355Y-98578152D02*
X54827974Y-98673390D01*
X54827974Y-98673390D02*
X54875593Y-98721009D01*
X54875593Y-98721009D02*
X54970831Y-98768628D01*
X54970831Y-98768628D02*
X55351783Y-98768628D01*
X53827974Y-99244819D02*
X54399402Y-99244819D01*
X54113688Y-99244819D02*
X54113688Y-98244819D01*
X54113688Y-98244819D02*
X54208926Y-98387676D01*
X54208926Y-98387676D02*
X54304164Y-98482914D01*
X54304164Y-98482914D02*
X54399402Y-98530533D01*
X53494640Y-98244819D02*
X52827974Y-98244819D01*
X52827974Y-98244819D02*
X53256545Y-99244819D01*
X62742857Y-84384819D02*
X63076190Y-83908628D01*
X63314285Y-84384819D02*
X63314285Y-83384819D01*
X63314285Y-83384819D02*
X62933333Y-83384819D01*
X62933333Y-83384819D02*
X62838095Y-83432438D01*
X62838095Y-83432438D02*
X62790476Y-83480057D01*
X62790476Y-83480057D02*
X62742857Y-83575295D01*
X62742857Y-83575295D02*
X62742857Y-83718152D01*
X62742857Y-83718152D02*
X62790476Y-83813390D01*
X62790476Y-83813390D02*
X62838095Y-83861009D01*
X62838095Y-83861009D02*
X62933333Y-83908628D01*
X62933333Y-83908628D02*
X63314285Y-83908628D01*
X62409523Y-83384819D02*
X61790476Y-83384819D01*
X61790476Y-83384819D02*
X62123809Y-83765771D01*
X62123809Y-83765771D02*
X61980952Y-83765771D01*
X61980952Y-83765771D02*
X61885714Y-83813390D01*
X61885714Y-83813390D02*
X61838095Y-83861009D01*
X61838095Y-83861009D02*
X61790476Y-83956247D01*
X61790476Y-83956247D02*
X61790476Y-84194342D01*
X61790476Y-84194342D02*
X61838095Y-84289580D01*
X61838095Y-84289580D02*
X61885714Y-84337200D01*
X61885714Y-84337200D02*
X61980952Y-84384819D01*
X61980952Y-84384819D02*
X62266666Y-84384819D01*
X62266666Y-84384819D02*
X62361904Y-84337200D01*
X62361904Y-84337200D02*
X62409523Y-84289580D01*
X60838095Y-84384819D02*
X61409523Y-84384819D01*
X61123809Y-84384819D02*
X61123809Y-83384819D01*
X61123809Y-83384819D02*
X61219047Y-83527676D01*
X61219047Y-83527676D02*
X61314285Y-83622914D01*
X61314285Y-83622914D02*
X61409523Y-83670533D01*
X72724819Y-106389642D02*
X72248628Y-106056309D01*
X72724819Y-105818214D02*
X71724819Y-105818214D01*
X71724819Y-105818214D02*
X71724819Y-106199166D01*
X71724819Y-106199166D02*
X71772438Y-106294404D01*
X71772438Y-106294404D02*
X71820057Y-106342023D01*
X71820057Y-106342023D02*
X71915295Y-106389642D01*
X71915295Y-106389642D02*
X72058152Y-106389642D01*
X72058152Y-106389642D02*
X72153390Y-106342023D01*
X72153390Y-106342023D02*
X72201009Y-106294404D01*
X72201009Y-106294404D02*
X72248628Y-106199166D01*
X72248628Y-106199166D02*
X72248628Y-105818214D01*
X72724819Y-107342023D02*
X72724819Y-106770595D01*
X72724819Y-107056309D02*
X71724819Y-107056309D01*
X71724819Y-107056309D02*
X71867676Y-106961071D01*
X71867676Y-106961071D02*
X71962914Y-106865833D01*
X71962914Y-106865833D02*
X72010533Y-106770595D01*
X71724819Y-107675357D02*
X71724819Y-108294404D01*
X71724819Y-108294404D02*
X72105771Y-107961071D01*
X72105771Y-107961071D02*
X72105771Y-108103928D01*
X72105771Y-108103928D02*
X72153390Y-108199166D01*
X72153390Y-108199166D02*
X72201009Y-108246785D01*
X72201009Y-108246785D02*
X72296247Y-108294404D01*
X72296247Y-108294404D02*
X72534342Y-108294404D01*
X72534342Y-108294404D02*
X72629580Y-108246785D01*
X72629580Y-108246785D02*
X72677200Y-108199166D01*
X72677200Y-108199166D02*
X72724819Y-108103928D01*
X72724819Y-108103928D02*
X72724819Y-107818214D01*
X72724819Y-107818214D02*
X72677200Y-107722976D01*
X72677200Y-107722976D02*
X72629580Y-107675357D01*
X62024819Y-110887142D02*
X61548628Y-110553809D01*
X62024819Y-110315714D02*
X61024819Y-110315714D01*
X61024819Y-110315714D02*
X61024819Y-110696666D01*
X61024819Y-110696666D02*
X61072438Y-110791904D01*
X61072438Y-110791904D02*
X61120057Y-110839523D01*
X61120057Y-110839523D02*
X61215295Y-110887142D01*
X61215295Y-110887142D02*
X61358152Y-110887142D01*
X61358152Y-110887142D02*
X61453390Y-110839523D01*
X61453390Y-110839523D02*
X61501009Y-110791904D01*
X61501009Y-110791904D02*
X61548628Y-110696666D01*
X61548628Y-110696666D02*
X61548628Y-110315714D01*
X62024819Y-111839523D02*
X62024819Y-111268095D01*
X62024819Y-111553809D02*
X61024819Y-111553809D01*
X61024819Y-111553809D02*
X61167676Y-111458571D01*
X61167676Y-111458571D02*
X61262914Y-111363333D01*
X61262914Y-111363333D02*
X61310533Y-111268095D01*
X61453390Y-112410952D02*
X61405771Y-112315714D01*
X61405771Y-112315714D02*
X61358152Y-112268095D01*
X61358152Y-112268095D02*
X61262914Y-112220476D01*
X61262914Y-112220476D02*
X61215295Y-112220476D01*
X61215295Y-112220476D02*
X61120057Y-112268095D01*
X61120057Y-112268095D02*
X61072438Y-112315714D01*
X61072438Y-112315714D02*
X61024819Y-112410952D01*
X61024819Y-112410952D02*
X61024819Y-112601428D01*
X61024819Y-112601428D02*
X61072438Y-112696666D01*
X61072438Y-112696666D02*
X61120057Y-112744285D01*
X61120057Y-112744285D02*
X61215295Y-112791904D01*
X61215295Y-112791904D02*
X61262914Y-112791904D01*
X61262914Y-112791904D02*
X61358152Y-112744285D01*
X61358152Y-112744285D02*
X61405771Y-112696666D01*
X61405771Y-112696666D02*
X61453390Y-112601428D01*
X61453390Y-112601428D02*
X61453390Y-112410952D01*
X61453390Y-112410952D02*
X61501009Y-112315714D01*
X61501009Y-112315714D02*
X61548628Y-112268095D01*
X61548628Y-112268095D02*
X61643866Y-112220476D01*
X61643866Y-112220476D02*
X61834342Y-112220476D01*
X61834342Y-112220476D02*
X61929580Y-112268095D01*
X61929580Y-112268095D02*
X61977200Y-112315714D01*
X61977200Y-112315714D02*
X62024819Y-112410952D01*
X62024819Y-112410952D02*
X62024819Y-112601428D01*
X62024819Y-112601428D02*
X61977200Y-112696666D01*
X61977200Y-112696666D02*
X61929580Y-112744285D01*
X61929580Y-112744285D02*
X61834342Y-112791904D01*
X61834342Y-112791904D02*
X61643866Y-112791904D01*
X61643866Y-112791904D02*
X61548628Y-112744285D01*
X61548628Y-112744285D02*
X61501009Y-112696666D01*
X61501009Y-112696666D02*
X61453390Y-112601428D01*
X42669580Y-66480832D02*
X42717200Y-66433213D01*
X42717200Y-66433213D02*
X42764819Y-66290356D01*
X42764819Y-66290356D02*
X42764819Y-66195118D01*
X42764819Y-66195118D02*
X42717200Y-66052261D01*
X42717200Y-66052261D02*
X42621961Y-65957023D01*
X42621961Y-65957023D02*
X42526723Y-65909404D01*
X42526723Y-65909404D02*
X42336247Y-65861785D01*
X42336247Y-65861785D02*
X42193390Y-65861785D01*
X42193390Y-65861785D02*
X42002914Y-65909404D01*
X42002914Y-65909404D02*
X41907676Y-65957023D01*
X41907676Y-65957023D02*
X41812438Y-66052261D01*
X41812438Y-66052261D02*
X41764819Y-66195118D01*
X41764819Y-66195118D02*
X41764819Y-66290356D01*
X41764819Y-66290356D02*
X41812438Y-66433213D01*
X41812438Y-66433213D02*
X41860057Y-66480832D01*
X42193390Y-67052261D02*
X42145771Y-66957023D01*
X42145771Y-66957023D02*
X42098152Y-66909404D01*
X42098152Y-66909404D02*
X42002914Y-66861785D01*
X42002914Y-66861785D02*
X41955295Y-66861785D01*
X41955295Y-66861785D02*
X41860057Y-66909404D01*
X41860057Y-66909404D02*
X41812438Y-66957023D01*
X41812438Y-66957023D02*
X41764819Y-67052261D01*
X41764819Y-67052261D02*
X41764819Y-67242737D01*
X41764819Y-67242737D02*
X41812438Y-67337975D01*
X41812438Y-67337975D02*
X41860057Y-67385594D01*
X41860057Y-67385594D02*
X41955295Y-67433213D01*
X41955295Y-67433213D02*
X42002914Y-67433213D01*
X42002914Y-67433213D02*
X42098152Y-67385594D01*
X42098152Y-67385594D02*
X42145771Y-67337975D01*
X42145771Y-67337975D02*
X42193390Y-67242737D01*
X42193390Y-67242737D02*
X42193390Y-67052261D01*
X42193390Y-67052261D02*
X42241009Y-66957023D01*
X42241009Y-66957023D02*
X42288628Y-66909404D01*
X42288628Y-66909404D02*
X42383866Y-66861785D01*
X42383866Y-66861785D02*
X42574342Y-66861785D01*
X42574342Y-66861785D02*
X42669580Y-66909404D01*
X42669580Y-66909404D02*
X42717200Y-66957023D01*
X42717200Y-66957023D02*
X42764819Y-67052261D01*
X42764819Y-67052261D02*
X42764819Y-67242737D01*
X42764819Y-67242737D02*
X42717200Y-67337975D01*
X42717200Y-67337975D02*
X42669580Y-67385594D01*
X42669580Y-67385594D02*
X42574342Y-67433213D01*
X42574342Y-67433213D02*
X42383866Y-67433213D01*
X42383866Y-67433213D02*
X42288628Y-67385594D01*
X42288628Y-67385594D02*
X42241009Y-67337975D01*
X42241009Y-67337975D02*
X42193390Y-67242737D01*
X49559580Y-62340831D02*
X49607200Y-62293212D01*
X49607200Y-62293212D02*
X49654819Y-62150355D01*
X49654819Y-62150355D02*
X49654819Y-62055117D01*
X49654819Y-62055117D02*
X49607200Y-61912260D01*
X49607200Y-61912260D02*
X49511961Y-61817022D01*
X49511961Y-61817022D02*
X49416723Y-61769403D01*
X49416723Y-61769403D02*
X49226247Y-61721784D01*
X49226247Y-61721784D02*
X49083390Y-61721784D01*
X49083390Y-61721784D02*
X48892914Y-61769403D01*
X48892914Y-61769403D02*
X48797676Y-61817022D01*
X48797676Y-61817022D02*
X48702438Y-61912260D01*
X48702438Y-61912260D02*
X48654819Y-62055117D01*
X48654819Y-62055117D02*
X48654819Y-62150355D01*
X48654819Y-62150355D02*
X48702438Y-62293212D01*
X48702438Y-62293212D02*
X48750057Y-62340831D01*
X48654819Y-62674165D02*
X48654819Y-63340831D01*
X48654819Y-63340831D02*
X49654819Y-62912260D01*
D11*
%TO.C,C17*%
X36708768Y-103805000D02*
X36416234Y-103805000D01*
X36708768Y-104825000D02*
X36416234Y-104825000D01*
%TO.C,U5*%
X62820000Y-96180900D02*
X60870000Y-96180900D01*
X62820000Y-96180900D02*
X64770000Y-96180900D01*
X62820000Y-106300900D02*
X60870000Y-106300900D01*
X62820000Y-106300900D02*
X64770000Y-106300900D01*
X60360000Y-106575900D02*
X59880000Y-106575900D01*
X60120000Y-106245900D01*
X60360000Y-106575900D01*
G36*
X60360000Y-106575900D02*
G01*
X59880000Y-106575900D01*
X60120000Y-106245900D01*
X60360000Y-106575900D01*
G37*
%TO.C,C12*%
X53780000Y-77768766D02*
X53780000Y-77476232D01*
X54800000Y-77768766D02*
X54800000Y-77476232D01*
%TO.C,C10*%
X58080000Y-86821235D02*
X58080000Y-87113769D01*
X59100000Y-86821235D02*
X59100000Y-87113769D01*
%TO.C,Q1*%
X69320000Y-98849999D02*
X68670000Y-98850000D01*
X69320000Y-98849999D02*
X69970000Y-98850000D01*
X69320000Y-101970001D02*
X68670000Y-101970000D01*
X69320000Y-101970001D02*
X69970000Y-101970000D01*
X68397500Y-102249999D02*
X67917500Y-102250000D01*
X68157500Y-101920000D01*
X68397500Y-102249999D01*
G36*
X68397500Y-102249999D02*
G01*
X67917500Y-102250000D01*
X68157500Y-101920000D01*
X68397500Y-102249999D01*
G37*
%TO.C,C6*%
X52350000Y-71706234D02*
X52350000Y-71998768D01*
X53370000Y-71706234D02*
X53370000Y-71998768D01*
%TO.C,R14*%
X71747500Y-100713824D02*
X71747500Y-100204376D01*
X72792500Y-100713824D02*
X72792500Y-100204376D01*
%TO.C,C9*%
X52620000Y-68301232D02*
X52620000Y-68593766D01*
X53640000Y-68301232D02*
X53640000Y-68593766D01*
%TO.C,C5*%
X40430000Y-110328768D02*
X40430000Y-110036234D01*
X41450000Y-110328768D02*
X41450000Y-110036234D01*
%TO.C,Q2*%
X69320000Y-102535899D02*
X68670000Y-102535900D01*
X69320000Y-102535899D02*
X69970000Y-102535900D01*
X69320000Y-105655901D02*
X68670000Y-105655900D01*
X69320000Y-105655901D02*
X69970000Y-105655900D01*
X68397500Y-105935899D02*
X67917500Y-105935900D01*
X68157500Y-105605900D01*
X68397500Y-105935899D01*
G36*
X68397500Y-105935899D02*
G01*
X67917500Y-105935900D01*
X68157500Y-105605900D01*
X68397500Y-105935899D01*
G37*
%TO.C,R16*%
X56912775Y-99810450D02*
X57422223Y-99810450D01*
X56912775Y-100855450D02*
X57422223Y-100855450D01*
%TO.C,C13*%
X53790000Y-81138768D02*
X53790000Y-80846234D01*
X54810000Y-81138768D02*
X54810000Y-80846234D01*
%TO.C,R15*%
X38887500Y-110434724D02*
X38887500Y-109925276D01*
X39932500Y-110434724D02*
X39932500Y-109925276D01*
%TO.C,R19*%
X64047500Y-114917224D02*
X64047500Y-114407776D01*
X65092500Y-114917224D02*
X65092500Y-114407776D01*
%TO.C,C3*%
X57313766Y-101365900D02*
X57021232Y-101365900D01*
X57313766Y-102385900D02*
X57021232Y-102385900D01*
%TO.C,R22*%
X55427224Y-108797500D02*
X54917776Y-108797500D01*
X55427224Y-109842500D02*
X54917776Y-109842500D01*
%TO.C,C15*%
X65806234Y-87122501D02*
X66098768Y-87122501D01*
X65806234Y-88142501D02*
X66098768Y-88142501D01*
%TO.C,C16*%
X63873767Y-93382501D02*
X63581233Y-93382501D01*
X63873767Y-94402501D02*
X63581233Y-94402501D01*
%TO.C,C11*%
X63830000Y-81741232D02*
X63830000Y-82033766D01*
X64850000Y-81741232D02*
X64850000Y-82033766D01*
%TO.C,R32*%
X62285276Y-87707499D02*
X62794724Y-87707499D01*
X62285276Y-88752499D02*
X62794724Y-88752499D01*
%TO.C,C18*%
X36708768Y-102271751D02*
X36416234Y-102271751D01*
X36708768Y-103291751D02*
X36416234Y-103291751D01*
%TO.C,R17*%
X56912775Y-98267500D02*
X57422223Y-98267500D01*
X56912775Y-99312500D02*
X57422223Y-99312500D01*
%TO.C,R31*%
X62285276Y-86167500D02*
X62794724Y-86167500D01*
X62285276Y-87212500D02*
X62794724Y-87212500D01*
%TO.C,R21*%
X38987500Y-92637224D02*
X38987500Y-92127776D01*
X40032500Y-92637224D02*
X40032500Y-92127776D01*
%TO.C,R13*%
X71747500Y-103677776D02*
X71747500Y-104187224D01*
X72792500Y-103677776D02*
X72792500Y-104187224D01*
%TO.C,R18*%
X61047500Y-114917224D02*
X61047500Y-114407776D01*
X62092500Y-114917224D02*
X62092500Y-114407776D01*
%TO.C,C8*%
X43230000Y-66501232D02*
X43230000Y-66793766D01*
X44250000Y-66501232D02*
X44250000Y-66793766D01*
%TO.C,C7*%
X47260000Y-62653765D02*
X47260000Y-62361231D01*
X48280000Y-62653765D02*
X48280000Y-62361231D01*
%TD*%
M02*
